<svg class="animated" id="freepik_stories-brand-communication" xmlns="http://www.w3.org/2000/svg" viewBox="0 0 500 500" version="1.1" xmlns:xlink="http://www.w3.org/1999/xlink" xmlns:svgjs="http://svgjs.com/svgjs"><style>svg#freepik_stories-brand-communication:not(.animated) .animable {opacity: 0;}svg#freepik_stories-brand-communication.animated #freepik--Floor--inject-26 {animation: 1s 1 forwards cubic-bezier(.36,-0.01,.5,1.38) slideUp;animation-delay: 0s;}svg#freepik_stories-brand-communication.animated #freepik--Plant--inject-26 {animation: 1s 1 forwards cubic-bezier(.36,-0.01,.5,1.38) lightSpeedLeft;animation-delay: 0s;}svg#freepik_stories-brand-communication.animated #freepik--Shadows--inject-26 {animation: 1s 1 forwards cubic-bezier(.36,-0.01,.5,1.38) slideUp;animation-delay: 0s;}svg#freepik_stories-brand-communication.animated #freepik--Gears--inject-26 {animation: 1s 1 forwards cubic-bezier(.36,-0.01,.5,1.38) slideDown;animation-delay: 0s;}svg#freepik_stories-brand-communication.animated #freepik--icons-2--inject-26 {animation: 1s 1 forwards cubic-bezier(.36,-0.01,.5,1.38) fadeIn,1.5s Infinite  linear floating;animation-delay: 0s,1s;}svg#freepik_stories-brand-communication.animated #freepik--icons-1--inject-26 {animation: 1s 1 forwards cubic-bezier(.36,-0.01,.5,1.38) lightSpeedRight,1.5s Infinite  linear floating;animation-delay: 0s,1.5s;}svg#freepik_stories-brand-communication.animated #freepik--paper-planes--inject-26 {animation: 1s 1 forwards cubic-bezier(.36,-0.01,.5,1.38) slideRight;animation-delay: 0s;}svg#freepik_stories-brand-communication.animated #freepik--character-2--inject-26 {animation: 1s 1 forwards cubic-bezier(.36,-0.01,.5,1.38) slideDown,1.5s Infinite  linear wind;animation-delay: 0s,1.5s;}svg#freepik_stories-brand-communication.animated #freepik--character-1--inject-26 {animation: 1s 1 forwards cubic-bezier(.36,-0.01,.5,1.38) lightSpeedLeft,1.5s Infinite  linear wind;animation-delay: 0s,1s;}svg#freepik_stories-brand-communication.animated #freepik--speech-bubble--inject-26 {animation: 1s 1 forwards cubic-bezier(.36,-0.01,.5,1.38) slideDown;animation-delay: 0s;}            @keyframes slideUp {                0% {                    opacity: 0;                    transform: translateY(30px);                }                100% {                    opacity: 1;                    transform: inherit;                }            }                    @keyframes lightSpeedLeft {              from {                transform: translate3d(-50%, 0, 0) skewX(20deg);                opacity: 0;              }              60% {                transform: skewX(-10deg);                opacity: 1;              }              80% {                transform: skewX(2deg);              }              to {                opacity: 1;                transform: translate3d(0, 0, 0);              }            }                    @keyframes slideDown {                0% {                    opacity: 0;                    transform: translateY(-30px);                }                100% {                    opacity: 1;                    transform: translateY(0);                }            }                    @keyframes fadeIn {                0% {                    opacity: 0;                }                100% {                    opacity: 1;                }            }                    @keyframes floating {                0% {                    opacity: 1;                    transform: translateY(0px);                }                50% {                    transform: translateY(-10px);                }                100% {                    opacity: 1;                    transform: translateY(0px);                }            }                    @keyframes lightSpeedRight {              from {                transform: translate3d(50%, 0, 0) skewX(-20deg);                opacity: 0;              }              60% {                transform: skewX(10deg);                opacity: 1;              }              80% {                transform: skewX(-2deg);              }              to {                opacity: 1;                transform: translate3d(0, 0, 0);              }            }                    @keyframes slideRight {                0% {                    opacity: 0;                    transform: translateX(30px);                }                100% {                    opacity: 1;                    transform: translateX(0);                }            }                    @keyframes wind {                0% {                    transform: rotate( 0deg );                }                25% {                    transform: rotate( 1deg );                }                75% {                    transform: rotate( -1deg );                }            }        </style><g id="freepik--Floor--inject-26" class="animable" style="transform-origin: 246.365px 357.933px;"><path id="freepik--floor--inject-26" d="M100.79,273.89c-80.4,46.42-80.4,121.68,0,168.09s210.75,46.42,291.15,0,80.4-121.67,0-168.09S181.18,227.47,100.79,273.89Z" style="fill: rgb(245, 245, 245); transform-origin: 246.365px 357.933px;" class="animable"></path></g><g id="freepik--Plant--inject-26" class="animable" style="transform-origin: 68.0588px 317.076px;"><g id="freepik--Plants--inject-26" class="animable" style="transform-origin: 68.0588px 317.076px;"><path d="M88.91,349.52l-12.4,7.16c.17-4.42.55-11-.06-15.44-3.74-27.11-14.3-36-19.33-49.24-5.28-13.89,1.17-18.36,9.54-15.86,7.47,2.22,18.28,13.28,21.69,33.51C90.61,323.11,90.21,337.72,88.91,349.52Z" style="fill: rgb(108, 53, 222); transform-origin: 72.5859px 316.08px;" id="elu9pd2irm8v" class="animable"></path><g id="el12tcwtbnnqfp"><path d="M88.91,349.52l-12.4,7.16c.17-4.42.55-11-.06-15.44-3.74-27.11-14.3-36-19.33-49.24-5.28-13.89,1.17-18.36,9.54-15.86,7.47,2.22,18.28,13.28,21.69,33.51C90.61,323.11,90.21,337.72,88.91,349.52Z" style="fill: rgb(255, 255, 255); opacity: 0.65; transform-origin: 72.5859px 316.08px;" class="animable"></path></g><path d="M82.34,353.32,81.1,354c4.43-31.6-6.37-59-17-70.33a.56.56,0,0,1,0-.77.57.57,0,0,1,.78,0C75.52,294.28,86.32,321.87,82.34,353.32Z" style="fill: rgb(255, 255, 255); transform-origin: 73.5656px 318.373px;" id="el4lmda4h128r" class="animable"></path><path d="M80,354.67l-7,4h0c-3.71-10.92-7.52-15.3-12.25-22.49-4.31-6.53-9.32-10.59-12-15.18-2.36-4.07-4.13-9.18-.62-12.28C53.72,303.82,61,309,66,314.67,70.34,319.54,79,332.5,80,354.67Z" style="fill: rgb(108, 53, 222); transform-origin: 63.076px 332.717px;" id="el8yvqs97ewfq" class="animable"></path><g id="el91pz6vc6l4"><path d="M80,354.67l-7,4h0c-3.71-10.92-7.52-15.3-12.25-22.49-4.31-6.53-9.32-10.59-12-15.18-2.36-4.07-4.13-9.18-.62-12.28C53.72,303.82,61,309,66,314.67,70.34,319.54,79,332.5,80,354.67Z" style="fill: rgb(255, 255, 255); opacity: 0.3; transform-origin: 63.076px 332.717px;" class="animable"></path></g><path d="M77.13,356.32l-1,.59c-2.93-17.28-14.67-37.27-22-42a.55.55,0,0,1-.16-.77.54.54,0,0,1,.76-.17C62.31,318.88,74,338.78,77.13,356.32Z" style="fill: rgb(255, 255, 255); transform-origin: 65.5033px 335.395px;" id="eldgu4xbek2u4" class="animable"></path></g></g><g id="freepik--Shadows--inject-26" class="animable" style="transform-origin: 240.505px 378.1px;"><ellipse id="freepik--Shadow--inject-26" cx="130.06" cy="378.1" rx="67.27" ry="38.84" style="fill: rgb(224, 224, 224); transform-origin: 130.06px 378.1px;" class="animable"></ellipse><ellipse id="freepik--shadow--inject-26" cx="350.95" cy="378.1" rx="67.27" ry="38.84" style="fill: rgb(224, 224, 224); transform-origin: 350.95px 378.1px;" class="animable"></ellipse></g><g id="freepik--Gears--inject-26" class="animable" style="transform-origin: 435.648px 105.824px;"><g id="freepik--gears--inject-26" class="animable" style="transform-origin: 435.648px 105.824px;"><path d="M456.09,150l-3.1-5.49a2.43,2.43,0,0,0-1.35-.94,15.41,15.41,0,0,1-2-.6.42.42,0,0,0-.35,0,.37.37,0,0,0-.18.24l-.95,3.53a1.54,1.54,0,0,1-1,1.1,1.51,1.51,0,0,1-1.44-.27L441,144.05a3.28,3.28,0,0,1-1.23-2.53l.14-4.45a2.79,2.79,0,0,0-.61-1.64c-.79-.9-1.57-1.86-2.29-2.86a1.74,1.74,0,0,0-1.31-.62l-3,.24a2.63,2.63,0,0,1-2.45-1.4l-3-6.24a1.84,1.84,0,0,1-.08-1.47,1.87,1.87,0,0,1,1-1.09l2.39-1.11a.79.79,0,0,0,.4-.88,29,29,0,0,1-.62-3.08,3.15,3.15,0,0,0-.84-1.59l-4.24-3.68a3.19,3.19,0,0,1-1-2.64l.65-4.53a1.49,1.49,0,0,1,.82-1.21,1.52,1.52,0,0,1,1.45.14l4.21,2.6a.52.52,0,0,0,.7-.22,10.16,10.16,0,0,1,.84-1.09,1.36,1.36,0,0,0,.3-1.25l-2.28-5.64a1.74,1.74,0,0,1,1.21-2.38l3.09-.79a2.4,2.4,0,0,1,2.57,1.1l3.1,5.49a2.32,2.32,0,0,0,1.35.94,14.93,14.93,0,0,1,2,.61.41.41,0,0,0,.36,0,.33.33,0,0,0,.18-.24l.95-3.52a1.55,1.55,0,0,1,1-1.11,1.57,1.57,0,0,1,1.43.27l4.78,3.53a3.3,3.3,0,0,1,1.23,2.54l-.15,4.45a2.82,2.82,0,0,0,.62,1.64c.79.89,1.56,1.85,2.29,2.86a1.76,1.76,0,0,0,1.31.62l3-.24a2.59,2.59,0,0,1,2.44,1.4l3,6.24a1.9,1.9,0,0,1-.92,2.56l-2.39,1.1a.82.82,0,0,0-.4.89,30.47,30.47,0,0,1,.63,3.07,3,3,0,0,0,.84,1.59l4.24,3.68a3.18,3.18,0,0,1,1,2.65l-.64,4.53a1.5,1.5,0,0,1-.82,1.2,1.54,1.54,0,0,1-1.46-.13l-4.21-2.6a.52.52,0,0,0-.69.21,10.29,10.29,0,0,1-.84,1.1,1.35,1.35,0,0,0-.3,1.25L463,148a1.75,1.75,0,0,1,0,1.47,1.82,1.82,0,0,1-1.16.91l-3.09.78a1.7,1.7,0,0,1-.31.06A2.42,2.42,0,0,1,456.09,150Zm7.16-11.45,4.21,2.6.11.06s0-.06,0-.14l.65-4.53a1.84,1.84,0,0,0-.52-1.39l-4.25-3.68a4.49,4.49,0,0,1-1.31-2.45,25.18,25.18,0,0,0-.59-2.92,2.21,2.21,0,0,1,1.16-2.51l2.4-1.1a.5.5,0,0,0,.26-.29.48.48,0,0,0,0-.39l-3-6.24a1.24,1.24,0,0,0-1.07-.62l-3,.24a3.1,3.1,0,0,1-2.55-1.19c-.71-1-1.45-1.89-2.21-2.75a4.26,4.26,0,0,1-1-2.62l.15-4.44a1.93,1.93,0,0,0-.66-1.37L447.3,99.3a.3.3,0,0,0-.14-.07s-.05,0-.07.14l-.95,3.53a1.76,1.76,0,0,1-.89,1.12,1.81,1.81,0,0,1-1.48.07,13.78,13.78,0,0,0-1.85-.55,3.71,3.71,0,0,1-2.26-1.62l-3.1-5.49a1,1,0,0,0-1-.43l-3.09.79a.35.35,0,0,0-.25.18.36.36,0,0,0,0,.32l2.28,5.63a2.78,2.78,0,0,1-.56,2.72,8.3,8.3,0,0,0-.71.92,1.9,1.9,0,0,1-2.6.64l-4.21-2.6-.12-.06a.39.39,0,0,0,0,.13l-.64,4.54h0a1.84,1.84,0,0,0,.52,1.39l4.25,3.68a4.38,4.38,0,0,1,1.3,2.44,26.28,26.28,0,0,0,.6,2.93,2.23,2.23,0,0,1-1.17,2.51l-2.39,1.1a.51.51,0,0,0-.27.29.53.53,0,0,0,0,.39l3,6.24a1.21,1.21,0,0,0,1.06.61l3-.23a3.1,3.1,0,0,1,2.55,1.19c.7,1,1.44,1.89,2.21,2.75a4.18,4.18,0,0,1,1,2.61l-.14,4.45a1.91,1.91,0,0,0,.66,1.37l4.78,3.53a.3.3,0,0,0,.14.07s0-.05.07-.14l1-3.53a1.72,1.72,0,0,1,.88-1.12,1.8,1.8,0,0,1,1.49-.07,15.28,15.28,0,0,0,1.84.55,3.73,3.73,0,0,1,2.27,1.62l3.1,5.49a1,1,0,0,0,1,.43l3.1-.79a.38.38,0,0,0,.25-.19.41.41,0,0,0,0-.31l-2.28-5.64a2.76,2.76,0,0,1,.55-2.71,6.76,6.76,0,0,0,.72-.93,2,2,0,0,1,1.45-.9A1.84,1.84,0,0,1,463.25,138.56Zm-18.1-5.45h0c-5.36-4-9.07-11.7-8.28-17.26.36-2.52,1.59-4.34,3.49-5.14,2.33-1,5.38-.27,8.36,1.94,5.35,3.95,9.07,11.7,8.28,17.25-.36,2.52-1.6,4.35-3.49,5.14a5.21,5.21,0,0,1-1.62.4A10.1,10.1,0,0,1,445.15,133.11ZM440.9,112c-1.44.6-2.36,2-2.65,4-.72,5.1,2.75,12.25,7.73,15.93,2.58,1.91,5.12,2.55,7,1.77,1.44-.6,2.35-2,2.64-4,.73-5.11-2.74-12.25-7.72-15.94a8.8,8.8,0,0,0-5.76-2.07A4.44,4.44,0,0,0,440.9,112Z" style="fill: rgb(224, 224, 224); transform-origin: 446.986px 122.908px;" id="elaykgte1gw" class="animable"></path><path d="M422.78,97.38l-2.06-3.65a1.43,1.43,0,0,0-.82-.56,12.49,12.49,0,0,1-1.37-.41s-.1,0-.21.09l-.62,2.34a1.09,1.09,0,0,1-1.77.61l-3.17-2.34a2.32,2.32,0,0,1-.86-1.78l.1-3a1.85,1.85,0,0,0-.38-1c-.54-.6-1.05-1.24-1.54-1.9a1,1,0,0,0-.77-.37l-2,.16a1.84,1.84,0,0,1-1.73-1l-2-4.15a1.39,1.39,0,0,1-.06-1.06,1.35,1.35,0,0,1,.72-.78l1.59-.74a.42.42,0,0,0,.2-.46,17.29,17.29,0,0,1-.41-2,2,2,0,0,0-.52-1l-2.82-2.44a2.25,2.25,0,0,1-.7-1.86l.43-3a1.1,1.1,0,0,1,.61-.88,1.11,1.11,0,0,1,1.07.09l2.8,1.73c.13.08.25,0,.31-.11a5.19,5.19,0,0,1,.57-.74.79.79,0,0,0,.17-.72l-1.51-3.74a1.29,1.29,0,0,1,0-1.07,1.32,1.32,0,0,1,.83-.66l2.06-.52a1.68,1.68,0,0,1,1.83.78l2.06,3.65a1.5,1.5,0,0,0,.82.57,10.42,10.42,0,0,1,1.36.4c.06,0,.11,0,.21-.08l.63-2.34a1.09,1.09,0,0,1,1.77-.62l3.17,2.34a2.33,2.33,0,0,1,.86,1.78l-.1,3a1.78,1.78,0,0,0,.38,1,23.53,23.53,0,0,1,1.53,1.9,1,1,0,0,0,.77.37l2-.16A1.86,1.86,0,0,1,428,74l2,4.14a1.35,1.35,0,0,1,.05,1.06,1.38,1.38,0,0,1-.71.79l-1.59.73a.44.44,0,0,0-.21.46,20.76,20.76,0,0,1,.42,2,1.9,1.9,0,0,0,.52,1l2.82,2.45a2.23,2.23,0,0,1,.7,1.85l-.43,3a1.13,1.13,0,0,1-.61.89,1.12,1.12,0,0,1-1.07-.1l-2.8-1.72c-.13-.09-.26,0-.31.1a4.69,4.69,0,0,1-.57.74.79.79,0,0,0-.17.72l1.51,3.74a1.29,1.29,0,0,1,0,1.07,1.25,1.25,0,0,1-.84.66l-2.05.53-.22,0A1.7,1.7,0,0,1,422.78,97.38Zm4.91-7.75,2.73,1.75.43-3a1.12,1.12,0,0,0-.31-.82l-2.82-2.45a3,3,0,0,1-.91-1.69,17.37,17.37,0,0,0-.39-1.93,1.58,1.58,0,0,1,.83-1.79l1.59-.74a.19.19,0,0,0,.12-.13.21.21,0,0,0,0-.17l-2-4.14a.71.71,0,0,0-.6-.35l-2,.16a2.2,2.2,0,0,1-1.79-.84c-.46-.63-.95-1.24-1.46-1.82a2.91,2.91,0,0,1-.67-1.81l.1-2.95a1.17,1.17,0,0,0-.4-.82L417,63.72l-.63,2.35a1.25,1.25,0,0,1-.64.81,1.31,1.31,0,0,1-1.08.05,9.73,9.73,0,0,0-1.21-.36,2.58,2.58,0,0,1-1.57-1.13l-2.06-3.65a.55.55,0,0,0-.55-.23l-2.05.53-.14,0,.05.15L408.63,66a1.93,1.93,0,0,1-.39,1.92,4.74,4.74,0,0,0-.46.6,1.37,1.37,0,0,1-1.88.46l-2.73-1.76-.43,3h0a1.16,1.16,0,0,0,.31.83l2.82,2.44a3,3,0,0,1,.9,1.69c.1.63.23,1.28.4,1.93a1.59,1.59,0,0,1-.84,1.8l-1.59.73a.34.34,0,0,0-.12.13.26.26,0,0,0,0,.17l2,4.15a.72.72,0,0,0,.61.34l2-.15a2.16,2.16,0,0,1,1.8.83c.46.63,1,1.25,1.46,1.82a3,3,0,0,1,.67,1.81l-.1,3a1.18,1.18,0,0,0,.39.81l3.14,2.36.63-2.34a1.31,1.31,0,0,1,.65-.82,1.35,1.35,0,0,1,1.08,0,9.73,9.73,0,0,0,1.21.36,2.6,2.6,0,0,1,1.57,1.13l2.06,3.65a.54.54,0,0,0,.54.23l2.06-.52.09-.19L425,92.6a1.93,1.93,0,0,1,.39-1.92,4.74,4.74,0,0,0,.46-.6,1.43,1.43,0,0,1,1-.65A1.36,1.36,0,0,1,427.69,89.63Zm-12.15-3.44h0c-3.58-2.65-6.07-7.84-5.54-11.57a4.17,4.17,0,0,1,2.38-3.49c1.59-.67,3.65-.19,5.66,1.29,3.59,2.65,6.08,7.84,5.55,11.57a3.83,3.83,0,0,1-3.5,3.77A6.83,6.83,0,0,1,415.54,86.19Zm-2.71-14a3,3,0,0,0-1.69,2.6c-.48,3.35,1.81,8,5.09,10.48h0c1.67,1.24,3.33,1.66,4.53,1.16a3.07,3.07,0,0,0,1.69-2.6c.47-3.36-1.81-8.06-5.09-10.48A5.75,5.75,0,0,0,413.61,72,2.79,2.79,0,0,0,412.83,72.19Z" style="fill: rgb(224, 224, 224); transform-origin: 416.79px 79.2721px;" id="el4agmzp8lbuj" class="animable"></path></g></g><g id="freepik--icons-2--inject-26" class="animable" style="transform-origin: 444.185px 254.072px;"><g id="freepik--Icon--inject-26" class="animable" style="transform-origin: 444.185px 193.345px;"><g id="freepik--Box--inject-26" class="animable" style="transform-origin: 444.185px 193.345px;"><path d="M432.37,165.1l28.9,16.65a3,3,0,0,1,1.34,2.33v33.77a2.93,2.93,0,0,1-1.35,2.32l-2.56,1.45a3,3,0,0,1-2.7,0L427.11,205a2.94,2.94,0,0,1-1.35-2.33V168.85a2.93,2.93,0,0,1,1.35-2.31l2.57-1.46A3,3,0,0,1,432.37,165.1Z" style="fill: rgb(108, 53, 222); transform-origin: 444.185px 193.356px;" id="elsysa6yfstw" class="animable"></path><g id="elo7ptponyh8q"><path d="M456,221.61a3.08,3.08,0,0,0,2.7,0l2.56-1.45a3,3,0,0,0,1.35-2.32V184.08a2.75,2.75,0,0,0-.43-1.37l-5.23,3a2.62,2.62,0,0,1,.39,1.32v33.77C457.34,221.61,456.79,222.07,456,221.61Z" style="fill: rgb(255, 255, 255); opacity: 0.4; transform-origin: 459.305px 202.316px;" class="animable"></path></g><g id="elu731kd343y"><path d="M425.78,168.61c.1-.68.66-.92,1.33-.54L456,184.73a2.81,2.81,0,0,1,.95,1l5.24-3a2.6,2.6,0,0,0-.93-1l-28.89-16.66a3,3,0,0,0-2.7,0l-2.56,1.45A3,3,0,0,0,425.78,168.61Z" style="fill: rgb(255, 255, 255); opacity: 0.7; transform-origin: 443.985px 175.24px;" class="animable"></path></g><path d="M427.11,168.08,456,184.73a3,3,0,0,1,1.34,2.33v33.77c0,.86-.6,1.21-1.34.78L427.11,205a2.94,2.94,0,0,1-1.35-2.33V168.85C425.76,168,426.36,167.65,427.11,168.08Z" style="fill: rgb(108, 53, 222); transform-origin: 441.55px 194.845px;" id="ela77ee6fn86p" class="animable"></path><g id="elrgfxi9bnfo"><path d="M427.11,168.08,456,184.73a3,3,0,0,1,1.34,2.33v33.77c0,.86-.6,1.21-1.34.78L427.11,205a2.94,2.94,0,0,1-1.35-2.33V168.85C425.76,168,426.36,167.65,427.11,168.08Z" style="fill: rgb(255, 255, 255); opacity: 0.55; transform-origin: 441.55px 194.845px;" class="animable"></path></g></g><path d="M436.55,198.35V185.29c0-.93.62-1.21,1.18-.52l10.11,12.37c.7.84.7,2.36,0,2.4l-10.11.69C437.17,200.27,436.55,199.28,436.55,198.35Z" style="fill: rgb(250, 250, 250); transform-origin: 442.457px 192.309px;" id="elr5sjixgxhjb" class="animable"></path></g><g id="freepik--icon--inject-26" class="animable" style="transform-origin: 444.185px 254.075px;"><g id="freepik--box--inject-26" class="animable" style="transform-origin: 444.185px 254.075px;"><path d="M432.37,225.82l28.9,16.66a3,3,0,0,1,1.34,2.33v33.77a2.94,2.94,0,0,1-1.35,2.32l-2.56,1.45a3,3,0,0,1-2.7,0l-28.89-16.66a3,3,0,0,1-1.35-2.33V229.58a3,3,0,0,1,1.35-2.32l2.57-1.45A3,3,0,0,1,432.37,225.82Z" style="fill: rgb(108, 53, 222); transform-origin: 444.185px 254.084px;" id="elpzngm4iteb" class="animable"></path><g id="ell2jxdtb5oa"><path d="M456,282.34a3.08,3.08,0,0,0,2.7,0l2.56-1.46a2.92,2.92,0,0,0,1.35-2.31V244.81a2.82,2.82,0,0,0-.43-1.38l-5.23,3a2.68,2.68,0,0,1,.39,1.33v33.77C457.34,282.34,456.79,282.8,456,282.34Z" style="fill: rgb(255, 255, 255); opacity: 0.4; transform-origin: 459.305px 263.041px;" class="animable"></path></g><g id="eld4ja0861l0n"><path d="M425.78,229.34c.1-.68.66-.92,1.33-.54L456,245.46a2.86,2.86,0,0,1,.95,1l5.24-3a2.65,2.65,0,0,0-.93-1l-28.89-16.66a3,3,0,0,0-2.7,0l-2.56,1.45A3,3,0,0,0,425.78,229.34Z" style="fill: rgb(255, 255, 255); opacity: 0.7; transform-origin: 443.985px 235.97px;" class="animable"></path></g><path d="M427.11,228.8,456,245.46a3,3,0,0,1,1.34,2.33v33.77c0,.86-.6,1.21-1.34.78l-28.89-16.66a3,3,0,0,1-1.35-2.33V229.58C425.76,228.72,426.36,228.37,427.11,228.8Z" style="fill: rgb(108, 53, 222); transform-origin: 441.55px 255.57px;" id="ellb4bzumxu2o" class="animable"></path><g id="el2m9ukki3oru"><path d="M427.11,228.8,456,245.46a3,3,0,0,1,1.34,2.33v33.77c0,.86-.6,1.21-1.34.78l-28.89-16.66a3,3,0,0,1-1.35-2.33V229.58C425.76,228.72,426.36,228.37,427.11,228.8Z" style="fill: rgb(255, 255, 255); opacity: 0.55; transform-origin: 441.55px 255.57px;" class="animable"></path></g></g><path id="freepik--Message--inject-26" d="M444.85,257.58l5.5,11a2,2,0,0,0,.22-1v-14a4,4,0,0,0-.08-.77Zm-6.6-3.23L432.71,259a2.46,2.46,0,0,0,.81.85l15.66,9a.78.78,0,0,0,.72.1l-5.52-11-1.6,1.37a1.18,1.18,0,0,1-1.43,0,4,4,0,0,1-1.44-1.69Zm-6.13-11.43v14a3.44,3.44,0,0,0,.19,1.13l5.48-4.63-5.58-11.17A2.19,2.19,0,0,0,432.12,242.92Zm10.24,15.47,7.78-6.6a2.68,2.68,0,0,0-1-1.17l-15.66-9a.76.76,0,0,0-1,0l7.78,15.59C440.9,258.36,441.79,258.87,442.36,258.39Z" style="fill: rgb(250, 250, 250); transform-origin: 441.346px 255.214px;" class="animable"></path></g><g id="freepik--icon--inject-26" class="animable" style="transform-origin: 444.185px 314.802px;"><g id="freepik--box--inject-26" class="animable" style="transform-origin: 444.185px 314.802px;"><path d="M432.37,286.55l28.9,16.66a3,3,0,0,1,1.34,2.33v33.77a2.91,2.91,0,0,1-1.35,2.31l-2.56,1.46a3.05,3.05,0,0,1-2.7,0l-28.89-16.66a3,3,0,0,1-1.35-2.33V290.31a3,3,0,0,1,1.35-2.32l2.57-1.45A3,3,0,0,1,432.37,286.55Z" style="fill: rgb(108, 53, 222); transform-origin: 444.185px 314.811px;" id="elb4tbu8vu1d6" class="animable"></path><g id="el3i5s9ludj4i"><path d="M456,343.07a3.12,3.12,0,0,0,2.7,0l2.56-1.46a2.92,2.92,0,0,0,1.35-2.31V305.54a2.82,2.82,0,0,0-.43-1.38l-5.23,3a2.68,2.68,0,0,1,.39,1.33v33.77C457.34,343.07,456.79,343.52,456,343.07Z" style="fill: rgb(255, 255, 255); opacity: 0.4; transform-origin: 459.305px 323.769px;" class="animable"></path></g><g id="ellf1ite9dyf"><path d="M425.78,290.06c.1-.67.66-.92,1.33-.53L456,306.19a2.78,2.78,0,0,1,.95,1l5.24-3a2.65,2.65,0,0,0-.93-1l-28.89-16.66a3,3,0,0,0-2.7,0L427.11,288A3,3,0,0,0,425.78,290.06Z" style="fill: rgb(255, 255, 255); opacity: 0.7; transform-origin: 443.985px 296.7px;" class="animable"></path></g><path d="M427.11,289.53,456,306.19a3,3,0,0,1,1.34,2.33v33.77c0,.86-.6,1.2-1.34.78l-28.89-16.66a3,3,0,0,1-1.35-2.33V290.31C425.76,289.45,426.36,289.1,427.11,289.53Z" style="fill: rgb(108, 53, 222); transform-origin: 441.55px 316.298px;" id="elhusr71xbnfo" class="animable"></path><g id="elvzrrkwsrqf"><path d="M427.11,289.53,456,306.19a3,3,0,0,1,1.34,2.33v33.77c0,.86-.6,1.2-1.34.78l-28.89-16.66a3,3,0,0,1-1.35-2.33V290.31C425.76,289.45,426.36,289.1,427.11,289.53Z" style="fill: rgb(255, 255, 255); opacity: 0.55; transform-origin: 441.55px 316.298px;" class="animable"></path></g></g><path d="M445.12,320.25l.53-4.26-3.28-1.89v-3c0-1.25.45-2.2,1.92-1.35l1.5.86v-3.88a25.55,25.55,0,0,0-2.65-1.84c-2.71-1.56-4.47-.4-4.47,3.56V312l-3-1.73v4.56l3,1.73v11.22l3.7,2.13V318.66Z" style="fill: rgb(250, 250, 250); transform-origin: 440.73px 317.065px;" id="el3w4jbxobkex" class="animable"></path></g></g><g id="freepik--icons-1--inject-26" class="animable animator-active" style="transform-origin: 55.815px 157.096px;"><g id="freepik--icon--inject-26" class="animable" style="transform-origin: 55.815px 96.3662px;"><g id="freepik--box--inject-26" class="animable" style="transform-origin: 55.815px 96.3662px;"><path d="M67.63,68.11,38.73,84.76a3,3,0,0,0-1.34,2.33v33.77a2.93,2.93,0,0,0,1.35,2.32l2.56,1.45a3,3,0,0,0,2.7,0L72.89,108a3,3,0,0,0,1.35-2.33V71.86a3,3,0,0,0-1.35-2.31l-2.57-1.46A3,3,0,0,0,67.63,68.11Z" style="fill: rgb(108, 53, 222); transform-origin: 55.815px 96.3662px;" id="el41awz0adoj6" class="animable"></path><g id="elquwd378qydl"><path d="M44,124.62a3.08,3.08,0,0,1-2.7,0l-2.56-1.46a3,3,0,0,1-1.35-2.32V87.09a2.75,2.75,0,0,1,.43-1.37l5.23,3a2.62,2.62,0,0,0-.39,1.32v33.77C42.66,124.63,43.21,125.08,44,124.62Z" style="fill: rgb(255, 255, 255); opacity: 0.4; transform-origin: 40.695px 105.326px;" class="animable"></path></g><g id="elo26x5811lw7"><path d="M74.22,71.62c-.1-.68-.66-.92-1.33-.54L44,87.74a2.89,2.89,0,0,0-1,1l-5.24-3a2.68,2.68,0,0,1,.93-1L67.63,68.1a3.05,3.05,0,0,1,2.7,0l2.56,1.45A3,3,0,0,1,74.22,71.62Z" style="fill: rgb(255, 255, 255); opacity: 0.7; transform-origin: 55.99px 78.2625px;" class="animable"></path></g><path d="M72.89,71.09,44,87.74a3,3,0,0,0-1.34,2.33v33.77c0,.86.6,1.21,1.34.78L72.89,108a3,3,0,0,0,1.35-2.33V71.86C74.24,71,73.64,70.66,72.89,71.09Z" style="fill: rgb(108, 53, 222); transform-origin: 58.45px 97.854px;" id="elh30xi456zhr" class="animable"></path><g id="el9w5r6mnu34e"><path d="M72.89,71.09,44,87.74a3,3,0,0,0-1.34,2.33v33.77c0,.86.6,1.21,1.34.78L72.89,108a3,3,0,0,0,1.35-2.33V71.86C74.24,71,73.64,70.66,72.89,71.09Z" style="fill: rgb(255, 255, 255); opacity: 0.55; transform-origin: 58.45px 97.854px;" class="animable"></path></g></g><path id="freepik--Phone--inject-26" d="M67.32,99.43a19.53,19.53,0,0,0-1.88-.83c-1.26-.52-2.37-.08-3.17,2.1-.46,1.23-1.16,1.61-1.92,1.53a5.77,5.77,0,0,1-4.83-3.55,3.06,3.06,0,0,1,.39-3.35,3.58,3.58,0,0,0,.87-2.4c-.12-1.24-2.71-4.33-3.67-4.33a1.75,1.75,0,0,0-1.17.56c-2.14,2-2.93,4.77-1.91,7.11,3,7,7.9,10.58,14.37,11.08a4.85,4.85,0,0,0,1-.1c1.43-.67,3-3.25,3.41-5.25s-.65-2.13-1.47-2.57Z" style="fill: rgb(250, 250, 250); transform-origin: 59.2445px 97.975px;" class="animable"></path></g><g id="freepik--icon--inject-26" class="animable" style="transform-origin: 55.815px 157.085px;"><g id="freepik--box--inject-26" class="animable" style="transform-origin: 55.815px 157.085px;"><path d="M67.63,128.83l-28.9,16.66a3,3,0,0,0-1.34,2.33v33.77a2.93,2.93,0,0,0,1.35,2.32l2.56,1.45a3,3,0,0,0,2.7,0l28.89-16.66a3,3,0,0,0,1.35-2.33V132.59a3,3,0,0,0-1.35-2.32l-2.57-1.45A3,3,0,0,0,67.63,128.83Z" style="fill: rgb(108, 53, 222); transform-origin: 55.815px 157.094px;" id="eliamdo9ahg4n" class="animable"></path><g id="elwgnzwememwi"><path d="M44,185.35a3.08,3.08,0,0,1-2.7,0l-2.56-1.45a3,3,0,0,1-1.35-2.32V147.82a2.75,2.75,0,0,1,.43-1.37l5.23,3a2.62,2.62,0,0,0-.39,1.32v33.77C42.66,185.35,43.21,185.81,44,185.35Z" style="fill: rgb(255, 255, 255); opacity: 0.4; transform-origin: 40.695px 166.056px;" class="animable"></path></g><g id="el6kan9arwc5y"><path d="M74.22,132.35c-.1-.68-.66-.92-1.33-.54L44,148.47a2.81,2.81,0,0,0-1,1l-5.24-3a2.6,2.6,0,0,1,.93-1l28.89-16.66a3,3,0,0,1,2.7,0l2.56,1.45A3,3,0,0,1,74.22,132.35Z" style="fill: rgb(255, 255, 255); opacity: 0.7; transform-origin: 55.99px 138.98px;" class="animable"></path></g><path d="M72.89,131.81,44,148.47a3,3,0,0,0-1.34,2.33v33.77c0,.86.6,1.21,1.34.78l28.89-16.66a3,3,0,0,0,1.35-2.33V132.59C74.24,131.73,73.64,131.39,72.89,131.81Z" style="fill: rgb(108, 53, 222); transform-origin: 58.45px 158.582px;" id="eliujyx9jevx" class="animable"></path><g id="elbu4r346a2kh"><path d="M72.89,131.81,44,148.47a3,3,0,0,0-1.34,2.33v33.77c0,.86.6,1.21,1.34.78l28.89-16.66a3,3,0,0,0,1.35-2.33V132.59C74.24,131.73,73.64,131.39,72.89,131.81Z" style="fill: rgb(255, 255, 255); opacity: 0.55; transform-origin: 58.45px 158.582px;" class="animable"></path></g></g><path d="M58.78,152.9c-2.5,1.45-4.54,5.33-4.54,8.67s2,4.88,4.54,3.43,4.54-5.33,4.54-8.67S61.29,151.46,58.78,152.9Zm0,10c-1.63.94-2.94-.06-2.94-2.23A7,7,0,0,1,58.78,155c1.63-.94,2.95.05,2.95,2.22A7.05,7.05,0,0,1,58.78,162.88Zm4.72-14.35a2.52,2.52,0,0,0-1.06,2c0,.78.47,1.14,1.06.81a2.57,2.57,0,0,0,1.06-2C64.56,148.55,64.08,148.19,63.5,148.53Zm4.06.5a8.57,8.57,0,0,0-.41-2.63,3,3,0,0,0-1-1.49,2.18,2.18,0,0,0-1.56-.46,5.35,5.35,0,0,0-2.15.69c-.94.49-1.24.65-3.64,2s-2.7,1.58-3.64,2.18a10.1,10.1,0,0,0-3.71,4,11.83,11.83,0,0,0-1,2.68,14,14,0,0,0-.41,3.09c0,1.29,0,1.69,0,4.89s0,3.6,0,4.83a8.44,8.44,0,0,0,.41,2.62,3.06,3.06,0,0,0,1,1.5,2.18,2.18,0,0,0,1.56.45,5.15,5.15,0,0,0,2.15-.69c.94-.49,1.24-.65,3.64-2s2.7-1.57,3.64-2.17a10.08,10.08,0,0,0,2.15-1.79,10.3,10.3,0,0,0,1.56-2.26,11.83,11.83,0,0,0,1-2.68,13.86,13.86,0,0,0,.41-3.09c0-1.28,0-1.69,0-4.89S67.6,150.26,67.56,149ZM66,159.56a10.86,10.86,0,0,1-.3,2.36,7.34,7.34,0,0,1-.66,1.74,6.55,6.55,0,0,1-1,1.46,7.43,7.43,0,0,1-1.64,1.36c-.93.59-1.21.77-3.57,2.13s-2.64,1.51-3.57,2a4.08,4.08,0,0,1-1.64.54,1.41,1.41,0,0,1-1-.29,1.93,1.93,0,0,1-.67-1,6.51,6.51,0,0,1-.3-2c0-1.22-.05-1.58-.05-4.73s0-3.52.05-4.79a11,11,0,0,1,.3-2.36,7.54,7.54,0,0,1,.67-1.74,6.2,6.2,0,0,1,1-1.46,7.45,7.45,0,0,1,1.64-1.35c.93-.6,1.21-.77,3.57-2.13s2.64-1.52,3.57-2a4.08,4.08,0,0,1,1.64-.54,1.41,1.41,0,0,1,1,.3,1.85,1.85,0,0,1,.66,1,6.51,6.51,0,0,1,.3,2c0,1.22,0,1.59,0,4.73S66,158.29,66,159.56Z" style="fill: rgb(250, 250, 250); transform-origin: 58.8089px 158.936px;" id="elr9eoyu8zvxk" class="animable"></path></g><g id="freepik--icon--inject-26" class="animable" style="transform-origin: 55.815px 217.824px;"><g id="freepik--box--inject-26" class="animable" style="transform-origin: 55.815px 217.824px;"><path d="M67.63,189.56l-28.9,16.66a3,3,0,0,0-1.34,2.33v33.77a2.94,2.94,0,0,0,1.35,2.32l2.56,1.45a3,3,0,0,0,2.7,0l28.89-16.66a3,3,0,0,0,1.35-2.33V193.32A3,3,0,0,0,72.89,191l-2.57-1.45A3,3,0,0,0,67.63,189.56Z" style="fill: rgb(108, 53, 222); transform-origin: 55.815px 217.824px;" id="eld2h9gxmni36" class="animable"></path><g id="elxfa25lsg0r"><path d="M44,246.08a3.08,3.08,0,0,1-2.7,0l-2.56-1.46a2.92,2.92,0,0,1-1.35-2.31V208.55a2.82,2.82,0,0,1,.43-1.38l5.23,3a2.68,2.68,0,0,0-.39,1.33V245.3C42.66,246.08,43.21,246.54,44,246.08Z" style="fill: rgb(255, 255, 255); opacity: 0.4; transform-origin: 40.695px 226.781px;" class="animable"></path></g><g id="elx4wyl83f1eh"><path d="M74.22,193.08c-.1-.68-.66-.92-1.33-.54L44,209.2a2.78,2.78,0,0,0-1,1l-5.24-3a2.65,2.65,0,0,1,.93-.95l28.89-16.66a3,3,0,0,1,2.7,0L72.89,191A3,3,0,0,1,74.22,193.08Z" style="fill: rgb(255, 255, 255); opacity: 0.7; transform-origin: 55.99px 199.735px;" class="animable"></path></g><path d="M72.89,192.54,44,209.2a3,3,0,0,0-1.34,2.33V245.3c0,.86.6,1.21,1.34.78l28.89-16.66a3,3,0,0,0,1.35-2.33V193.32C74.24,192.46,73.64,192.11,72.89,192.54Z" style="fill: rgb(108, 53, 222); transform-origin: 58.45px 219.31px;" id="el8sj1x9hcam" class="animable"></path><g id="ele2kw7yyvq5g"><path d="M72.89,192.54,44,209.2a3,3,0,0,0-1.34,2.33V245.3c0,.86.6,1.21,1.34.78l28.89-16.66a3,3,0,0,0,1.35-2.33V193.32C74.24,192.46,73.64,192.11,72.89,192.54Z" style="fill: rgb(255, 255, 255); opacity: 0.55; transform-origin: 58.45px 219.31px;" class="animable"></path></g></g><path d="M65.71,209.18c0-.11,0-.11-.09-.06a4.67,4.67,0,0,1-.61.28,2.91,2.91,0,0,1-3.52-2.51,8.62,8.62,0,0,1-.1-1c0-.13,0-.13-.09-.07l-.07,0-2.79,1.62c-.19.11-.16.06-.16.31q0,8.09,0,16.16a4.3,4.3,0,0,1,0,.62A6.82,6.82,0,0,1,57,227.72a3.84,3.84,0,0,1-1.91,1.54,1.86,1.86,0,0,1-.61.08l0,0-.21-.08c-.86-.3-1.27-1.16-1.15-2.62a6.33,6.33,0,0,1,1.73-3.84,3.34,3.34,0,0,1,.93-.72,2.17,2.17,0,0,1,.61-.23c.06,0,.1-.07.1-.17a.31.31,0,0,0,0-.1c0-1,0-3.06,0-3.07v-.83c0-.09,0-.08-.08-.06a6.69,6.69,0,0,0-1.13.62,9.06,9.06,0,0,0-1.52,1.31,13.38,13.38,0,0,0-2.07,2.92,15.24,15.24,0,0,0-1.2,3,12.67,12.67,0,0,0-.49,2.89,9.24,9.24,0,0,0,0,1.18,8.06,8.06,0,0,0,.24,1.47,3.78,3.78,0,0,0,1.94,2.59.59.59,0,0,0,.29.1h0l.14.09a1.53,1.53,0,0,0,.48.11,4.81,4.81,0,0,0,3.28-1.12A12.31,12.31,0,0,0,60.05,228a13.73,13.73,0,0,0,1.38-5.78c0-2.69,0-5.37,0-8,0-.07,0-.14,0-.2s.08,0,.12,0A4.36,4.36,0,0,0,64,214a6.7,6.7,0,0,0,1.55-.64c.16-.1.18-.12.18-.34C65.74,212,65.71,209.43,65.71,209.18Z" style="fill: rgb(250, 250, 250); transform-origin: 57.8566px 219.842px;" id="el3drwnjyyanj" class="animable"></path></g></g><g id="freepik--paper-planes--inject-26" class="animable" style="transform-origin: 301.78px 228.83px;"><g id="freepik--paper-plane--inject-26" class="animable" style="transform-origin: 243.688px 322.12px;"><polygon points="222.41 289.51 256.54 269.33 232.85 295.68 222.41 289.51" style="fill: rgb(108, 53, 222); transform-origin: 239.475px 282.505px;" id="el4qnm4j300xm" class="animable"></polygon><polygon points="256.54 269.33 218.41 285.27 207.97 279.1 256.54 269.33" style="fill: rgb(108, 53, 222); transform-origin: 232.255px 277.3px;" id="elnwvzat8posb" class="animable"></polygon><polygon points="218.41 285.27 220.74 295.09 222.41 289.51 256.54 269.33 218.41 285.27" style="fill: rgb(108, 53, 222); transform-origin: 237.475px 282.21px;" id="elqn79qh809je" class="animable"></polygon><g id="el7iklj2dcfa3"><polygon points="218.41 285.27 220.74 295.09 222.41 289.51 256.54 269.33 218.41 285.27" style="opacity: 0.2; transform-origin: 237.475px 282.21px;" class="animable"></polygon></g><polygon points="220.74 295.09 225.89 291.57 222.41 289.51 220.74 295.09" style="fill: rgb(108, 53, 222); transform-origin: 223.315px 292.3px;" id="elnajkyj3c3el" class="animable"></polygon><g id="ellok2kkxmx5"><polygon points="222.41 289.51 225.89 291.57 225.07 292.13 222.41 289.51" style="opacity: 0.2; transform-origin: 224.15px 290.82px;" class="animable"></polygon></g><path d="M212.45,298.11A.67.67,0,0,1,212,297c.68-.64,1.38-1.25,2.06-1.79a.67.67,0,0,1,.84,1c-.65.53-1.32,1.11-2,1.73A.66.66,0,0,1,212.45,298.11Z" style="fill: rgb(224, 224, 224); transform-origin: 213.434px 296.623px;" id="elosxoji4ucwf" class="animable"></path><path d="M262.59,374.91c-1.33,0-2.63,0-3.92-.07a.67.67,0,0,1-.65-.69.69.69,0,0,1,.7-.65q2.56.09,5.25.06h0a.67.67,0,0,1,.67.66.69.69,0,0,1-.67.68Zm5.78-.14a.67.67,0,0,1,0-1.34c1.72-.08,3.49-.2,5.25-.36a.68.68,0,0,1,.72.61.67.67,0,0,1-.61.73c-1.78.16-3.56.28-5.29.36Zm-14.07-.16h-.05c-1.77-.13-3.55-.3-5.29-.52a.67.67,0,0,1,.17-1.33c1.71.21,3.47.39,5.22.52a.66.66,0,0,1,.62.71A.68.68,0,0,1,254.3,374.61ZM278,374a.67.67,0,0,1-.07-1.34c1.7-.2,3.46-.44,5.21-.71a.67.67,0,0,1,.76.56.66.66,0,0,1-.56.76c-1.76.28-3.53.52-5.26.73Zm-33.33-.53h-.11c-1.78-.3-3.53-.66-5.22-1.05a.67.67,0,1,1,.31-1.31c1.66.39,3.39.74,5.14,1a.67.67,0,0,1-.12,1.33Zm-9.43-2.16-.19,0c-1.72-.5-3.42-1.05-5.06-1.65a.67.67,0,1,1,.46-1.26c1.61.59,3.29,1.13,5,1.62a.67.67,0,0,1,.45.83A.66.66,0,0,1,235.26,371.27Zm-9.1-3.27a.63.63,0,0,1-.27-.06c-1.65-.72-3.27-1.49-4.81-2.31a.67.67,0,0,1-.27-.91.67.67,0,0,1,.9-.28c1.51.8,3.1,1.57,4.71,2.27a.67.67,0,0,1-.26,1.29Zm-8.58-4.49a.66.66,0,0,1-.35-.11c-1.53-1-3-2-4.39-3a.67.67,0,0,1-.13-.94.66.66,0,0,1,.94-.13c1.35,1,2.8,2,4.29,3a.66.66,0,0,1,.21.92A.67.67,0,0,1,217.58,363.51Zm-7.72-5.82a.7.7,0,0,1-.45-.17,50.1,50.1,0,0,1-3.77-3.81.67.67,0,0,1,1-.88,45.44,45.44,0,0,0,3.66,3.69.69.69,0,0,1,.05,1A.68.68,0,0,1,209.86,357.69Zm-6.46-7.19a.66.66,0,0,1-.54-.28,38.68,38.68,0,0,1-2.82-4.58.67.67,0,0,1,1.19-.62,36,36,0,0,0,2.72,4.42.67.67,0,0,1-.16.93A.63.63,0,0,1,203.4,350.5ZM198.87,342a.65.65,0,0,1-.63-.45,28.67,28.67,0,0,1-1.11-3.88c-.1-.45-.18-.89-.26-1.33a.68.68,0,0,1,.55-.78.69.69,0,0,1,.78.55c.07.43.15.85.24,1.28a27.2,27.2,0,0,0,1.06,3.71.68.68,0,0,1-.41.86A.57.57,0,0,1,198.87,342Zm-1.78-9.48a.68.68,0,0,1-.68-.65c0-.43,0-.85,0-1.28a37.8,37.8,0,0,1,.23-4.09.69.69,0,0,1,.75-.59.67.67,0,0,1,.59.74,35.11,35.11,0,0,0-.23,3.94c0,.41,0,.82,0,1.24a.67.67,0,0,1-.65.69Zm.94-9.61a.39.39,0,0,1-.15,0,.67.67,0,0,1-.5-.8,46,46,0,0,1,1.51-5.14.67.67,0,0,1,1.27.45,41.45,41.45,0,0,0-1.47,5A.68.68,0,0,1,198,322.89Zm3.18-9.13a.71.71,0,0,1-.28-.06.68.68,0,0,1-.33-.89c.75-1.6,1.6-3.18,2.52-4.72a.67.67,0,1,1,1.15.68q-1.35,2.26-2.45,4.61A.68.68,0,0,1,201.21,313.76Zm4.9-8.34a.65.65,0,0,1-.39-.13.66.66,0,0,1-.15-.93,52.66,52.66,0,0,1,3.32-4.19.67.67,0,0,1,.94-.07.68.68,0,0,1,.07.95,48.09,48.09,0,0,0-3.24,4.09A.68.68,0,0,1,206.11,305.42Z" style="fill: rgb(224, 224, 224); transform-origin: 240.159px 337.435px;" id="elf981gxen4xt" class="animable"></path><path d="M287.66,372.49a.67.67,0,0,1-.12-1.33l2.62-.51a.67.67,0,0,1,.79.53.66.66,0,0,1-.52.79l-2.65.51Z" style="fill: rgb(224, 224, 224); transform-origin: 288.975px 371.563px;" id="elydjj6kswme" class="animable"></path></g><g id="freepik--paper-plane--inject-26" class="animable" style="transform-origin: 355.736px 129.45px;"><polygon points="350.95 176.15 391.14 156.05 407.15 163.13 350.95 176.15" style="fill: rgb(108, 53, 222); transform-origin: 379.05px 166.1px;" id="elhh1auwgjk2q" class="animable"></polygon><polygon points="350.95 176.15 386.36 152.48 380.02 143.37 350.95 176.15" style="fill: rgb(108, 53, 222); transform-origin: 368.655px 159.76px;" id="elekaxkrj56wh" class="animable"></polygon><polygon points="386.36 152.48 385.69 158.78 350.95 176.15 386.36 152.48" style="fill: rgb(108, 53, 222); transform-origin: 368.655px 164.315px;" id="elhdoy2glxgx9" class="animable"></polygon><g id="elu7asp1ggj9"><polygon points="386.36 152.48 385.69 158.78 350.95 176.15 386.36 152.48" style="opacity: 0.2; transform-origin: 368.655px 164.315px;" class="animable"></polygon></g><path d="M391.94,152.25a.68.68,0,0,1-.46-.19.67.67,0,0,1,0-.95,28.79,28.79,0,0,0,3.24-4.1.67.67,0,0,1,1.13.73,30.33,30.33,0,0,1-3.4,4.3A.68.68,0,0,1,391.94,152.25Z" style="fill: rgb(224, 224, 224); transform-origin: 393.62px 149.476px;" id="el0at4xqwl3kmo" class="animable"></path><path d="M397.42,144.12a.67.67,0,0,1-.28-.06.66.66,0,0,1-.33-.89,32.53,32.53,0,0,0,1.77-4.94.67.67,0,0,1,1.3.35,33.17,33.17,0,0,1-1.85,5.15A.67.67,0,0,1,397.42,144.12Z" style="fill: rgb(224, 224, 224); transform-origin: 398.324px 140.927px;" id="el14jo8npurf7" class="animable"></path><path d="M400.1,134.69H400a.68.68,0,0,1-.58-.76,34,34,0,0,0,.3-4.53c0-.24,0-.48,0-.72a.68.68,0,0,1,.66-.69h0a.68.68,0,0,1,.67.66c0,.25,0,.5,0,.75a36.77,36.77,0,0,1-.31,4.71A.67.67,0,0,1,400.1,134.69Z" style="fill: rgb(224, 224, 224); transform-origin: 400.232px 131.34px;" id="el1byp422039n" class="animable"></path><path d="M400,124.88a.67.67,0,0,1-.66-.58,36.89,36.89,0,0,0-1.13-5.14.67.67,0,0,1,.45-.83.68.68,0,0,1,.84.45,39.65,39.65,0,0,1,1.17,5.33.68.68,0,0,1-.57.76Z" style="fill: rgb(224, 224, 224); transform-origin: 399.429px 121.591px;" id="el28itwwx6q0c" class="animable"></path><path d="M397.36,115.44a.66.66,0,0,1-.61-.41,39.18,39.18,0,0,0-2.41-4.69.68.68,0,0,1,.22-.92.67.67,0,0,1,.92.23,38.34,38.34,0,0,1,2.5,4.85.68.68,0,0,1-.62.94Z" style="fill: rgb(224, 224, 224); transform-origin: 396.138px 112.382px;" id="el45bk36tzxtl" class="animable"></path><path d="M392.39,107a.65.65,0,0,1-.53-.27,43.17,43.17,0,0,0-3.48-4,.67.67,0,1,1,.95-.94,43.17,43.17,0,0,1,3.59,4.1.67.67,0,0,1-.12.94A.7.7,0,0,1,392.39,107Z" style="fill: rgb(224, 224, 224); transform-origin: 390.605px 104.278px;" id="el3dj7ggnfn87" class="animable"></path><path d="M385.55,99.93a.7.7,0,0,1-.43-.15c-.81-.67-1.66-1.32-2.52-1.94-.57-.4-1.15-.8-1.75-1.19a.68.68,0,0,1-.19-.93.67.67,0,0,1,.93-.19c.61.4,1.21.81,1.79,1.22.89.64,1.76,1.3,2.6,2a.67.67,0,0,1-.43,1.19Z" style="fill: rgb(224, 224, 224); transform-origin: 383.39px 97.6792px;" id="el1lmn1r9qxzd" class="animable"></path><path d="M377.39,94.45a.61.61,0,0,1-.32-.08c-1.51-.83-3.11-1.63-4.76-2.37a.67.67,0,0,1,.55-1.23c1.69.76,3.32,1.58,4.86,2.42a.68.68,0,0,1,.26.92A.66.66,0,0,1,377.39,94.45Z" style="fill: rgb(224, 224, 224); transform-origin: 374.989px 92.5814px;" id="elpgm9ks6zmie" class="animable"></path><path d="M368.46,90.35a.69.69,0,0,1-.24,0c-1.63-.62-3.32-1.2-5-1.73a.67.67,0,0,1-.44-.84.68.68,0,0,1,.84-.44c1.74.54,3.46,1.13,5.11,1.76a.66.66,0,0,1,.39.86A.66.66,0,0,1,368.46,90.35Z" style="fill: rgb(224, 224, 224); transform-origin: 365.957px 88.8361px;" id="elbpxuchv7n76" class="animable"></path><path d="M359.07,87.39a.44.44,0,0,1-.16,0c-1.69-.43-3.44-.83-5.21-1.18a.67.67,0,0,1,.26-1.32c1.8.36,3.57.76,5.28,1.2a.67.67,0,0,1,.48.82A.66.66,0,0,1,359.07,87.39Z" style="fill: rgb(224, 224, 224); transform-origin: 356.45px 86.1373px;" id="elaa7zi13sk76" class="animable"></path><path d="M305,87.28a.67.67,0,0,1-.17-1.32c1.71-.45,3.49-.85,5.27-1.2a.67.67,0,0,1,.26,1.32c-1.76.34-3.51.74-5.19,1.18Z" style="fill: rgb(224, 224, 224); transform-origin: 307.612px 86.0137px;" id="elaosnj8zjnje" class="animable"></path><path d="M349.43,85.43h-.11c-1.72-.27-3.51-.5-5.29-.7a.66.66,0,0,1-.6-.73.67.67,0,0,1,.74-.6c1.81.19,3.61.43,5.36.7a.67.67,0,0,1-.1,1.34Z" style="fill: rgb(224, 224, 224); transform-origin: 346.788px 84.4189px;" id="elhhkicrw09zc" class="animable"></path><path d="M314.66,85.32a.67.67,0,0,1-.1-1.33c1.75-.27,3.56-.49,5.36-.68a.69.69,0,0,1,.73.61.67.67,0,0,1-.6.73c-1.78.18-3.56.4-5.29.67Z" style="fill: rgb(224, 224, 224); transform-origin: 317.329px 84.3143px;" id="elsu502pamdw" class="animable"></path><path d="M339.64,84.34h0c-1.77-.12-3.57-.2-5.34-.24a.67.67,0,0,1,0-1.34h0c1.79,0,3.61.12,5.4.24a.67.67,0,0,1-.05,1.34Z" style="fill: rgb(224, 224, 224); transform-origin: 336.988px 83.5502px;" id="elraf3x5d3nzj" class="animable"></path><path d="M324.44,84.29a.67.67,0,0,1,0-1.34c1.78-.11,3.59-.18,5.4-.2h0a.67.67,0,1,1,0,1.34c-1.78,0-3.57.09-5.33.2Z" style="fill: rgb(224, 224, 224); transform-origin: 327.141px 83.52px;" id="el72v26rqnn6v" class="animable"></path></g></g><g id="freepik--character-2--inject-26" class="animable" style="transform-origin: 338.076px 327.306px;"><g id="freepik--Character--inject-26" class="animable" style="transform-origin: 338.076px 327.306px;"><g id="freepik--Bottom--inject-26" class="animable" style="transform-origin: 332.133px 377.7px;"><path d="M320.21,383.12l-7.11-14-14.31,8.37,17.64,20.83s8.74-.81,10.15-5.37S322.61,384.64,320.21,383.12Z" style="fill: rgb(255, 168, 167); transform-origin: 312.801px 383.72px;" id="elzvuwyii6mp" class="animable"></path><path d="M330.29,388.62a7.59,7.59,0,0,1,2,2.17c.57.86.4,5,1,6.93s1,2.43,1.89,4.84c1,2.68,2.9,5.12.78,12s-5.54,10.15-8.42,11.82a7.52,7.52,0,0,1-3.47.85s-3.77-1.43-3.2-3.66S330.29,388.62,330.29,388.62Z" style="fill: rgb(38, 50, 56); transform-origin: 328.867px 407.925px;" id="el0pvy73dd4oxl" class="animable"></path><path d="M313.74,396.16a8.19,8.19,0,0,0,1.49,2.38,18.68,18.68,0,0,1,2.45,6.86c2.22,10.87-2.1,16.4,3.75,20.47,1.7,1.07,5.21.78,10.55-6.07,2.73-3.5,4.29-10.7,3.23-14s-2.52-5.38-3.21-7.89-.33-7.17-1.71-9.33a10.15,10.15,0,0,0-3.4-2.91c-1-.64-3.3-1.47-4.36-2.07s-1.64-1.28-2.32-.52l1.22,1.51c1.9,2.64,1.37,3,1.33,4.44a21.66,21.66,0,0,0,.71,4.47c-1.36-1.71-1.91-3.2-3.4-2.94s-1.65.19-3.78,2.18S313.65,395.54,313.74,396.16Z" style="fill: rgb(69, 90, 100); transform-origin: 324.638px 404.54px;" id="eloyg3cea2qi" class="animable"></path><path d="M332,419.8c2.73-3.5,4.29-10.7,3.23-14a30.13,30.13,0,0,0-1.26-3.16c.05.23.12.45.15.64.06.42.12.84.16,1.27a9.84,9.84,0,0,1-.54,4.93c-.62,1.36-2,4.75-3.87,4.83-1,0-1.91-1-2.31-2.13-.16-.49-.44-1.81-.44-1.81a16.11,16.11,0,0,0-4.76,1.94c-2.65,1.76-2.55,2.15-2.55,2.15a6.85,6.85,0,0,1,.08,2.32,5.61,5.61,0,0,1-1,2.32,3.82,3.82,0,0,1-.68.55,7.08,7.08,0,0,0,3.22,6.18C323.13,426.94,326.64,426.65,332,419.8Z" style="fill: rgb(55, 71, 79); transform-origin: 326.885px 414.481px;" id="elu9xs9rvn4w" class="animable"></path><path d="M317.68,405.4a36.76,36.76,0,0,1,.68,8.69c1,2.78,1.87,2.7,2,1.26s-1.8-7.43-3.23-12.37C317.34,403.8,317.52,404.62,317.68,405.4Z" style="fill: rgb(55, 71, 79); transform-origin: 318.748px 409.657px;" id="elsq92q8la8ir" class="animable"></path><path d="M324.29,388a6,6,0,0,0-1.06-4c-.26-.13-.51-.25-.7-.36-1.15-.65-1.64-1.28-2.32-.52l1.22,1.51c1.9,2.64,1.37,3,1.33,4.44a21.66,21.66,0,0,0,.71,4.47c1.1,4.72,2.11,6.3,2.64,10.75s-.37,7.46.26,7.71,1.9-.25,2.13-3.83-1.35-9.57-2.46-12.42S324.07,389.88,324.29,388Z" style="fill: rgb(55, 71, 79); transform-origin: 324.366px 397.413px;" id="elkt13l3qe7c" class="animable"></path><path d="M327.41,410.72a.45.45,0,0,1-.22.13,10.66,10.66,0,0,0-7.13,4.17.45.45,0,0,1-.63.05.44.44,0,0,1-.05-.62A11.5,11.5,0,0,1,327,410a.44.44,0,0,1,.52.34A.44.44,0,0,1,327.41,410.72Z" style="fill: rgb(235, 235, 235); transform-origin: 323.401px 412.583px;" id="elp63qgnzeuy" class="animable"></path><path d="M326.85,407a.43.43,0,0,1-.22.12,12,12,0,0,0-7.51,4.56.44.44,0,0,1-.64.05.46.46,0,0,1-.05-.65,12.87,12.87,0,0,1,8-4.85.46.46,0,0,1,.55.34A.45.45,0,0,1,326.85,407Z" style="fill: rgb(235, 235, 235); transform-origin: 322.655px 409.032px;" id="elk0c22jymgh" class="animable"></path><path d="M326.93,402.91a.48.48,0,0,1-.25.14,13.57,13.57,0,0,0-8.39,5.12.5.5,0,1,1-.76-.66,14.6,14.6,0,0,1,8.93-5.44.5.5,0,0,1,.6.38A.49.49,0,0,1,326.93,402.91Z" style="fill: rgb(235, 235, 235); transform-origin: 322.239px 405.201px;" id="el1ad4tbstlk3" class="animable"></path><path d="M326.34,399.42a.55.55,0,0,1-.25.13,13.23,13.23,0,0,0-8.2,5,.49.49,0,0,1-.69.05.48.48,0,0,1-.06-.69,14.16,14.16,0,0,1,8.73-5.32.49.49,0,0,1,.59.37A.51.51,0,0,1,326.34,399.42Z" style="fill: rgb(235, 235, 235); transform-origin: 321.747px 401.648px;" id="elum0v4thyvu" class="animable"></path><path d="M325.05,396a.47.47,0,0,1-.24.13,13.26,13.26,0,0,0-8.2,5,.5.5,0,0,1-.75-.65,14.2,14.2,0,0,1,8.73-5.32.5.5,0,0,1,.59.37A.49.49,0,0,1,325.05,396Z" style="fill: rgb(235, 235, 235); transform-origin: 320.485px 398.204px;" id="el3om1lnob5ei" class="animable"></path><polygon points="316.35 384.25 307.08 391.82 301.84 395.11 307.82 406.42 324.68 398.35 316.35 384.25" style="fill: rgb(255, 168, 167); transform-origin: 313.26px 395.335px;" id="elsof4xaokcf" class="animable"></polygon><path d="M338.49,334.33s-37-6.25-51.41-6.16c-14.72.1-16.09,11.15-12.4,17.92,7.05,13,31.57,40.46,31.57,40.46s8.24-3.78,10.77-10.9l-5.59-12.83,17.6,5.63,9-6,.73-4.59Z" style="fill: rgb(108, 53, 222); transform-origin: 305.854px 357.359px;" id="elzj25vgoa0xj" class="animable"></path><g id="el5dgpt0lc1mb"><path d="M338.49,334.33s-37-6.25-51.41-6.16c-14.72.1-16.09,11.15-12.4,17.92,7.05,13,31.57,40.46,31.57,40.46s8.24-3.78,10.77-10.9l-5.59-12.83,17.6,5.63,9-6,.73-4.59Z" style="opacity: 0.4; transform-origin: 305.854px 357.359px;" class="animable"></path></g><path d="M338.49,334.33l55.1,9.06s.57,14-4.92,26.48a28.56,28.56,0,0,1-21.84,16.68A162.72,162.72,0,0,1,349.17,388a44,44,0,0,1-9.22,5.43c-4.64,1.85-25,10.36-25,10.36s-5.71-4.83-5.14-14.9L329,368.45c4.34-5.29,5.87-7,8.28-8.2C336.09,343.43,337.23,341.43,338.49,334.33Z" style="fill: rgb(108, 53, 222); transform-origin: 351.688px 369.06px;" id="elfe0z6iivuui" class="animable"></path><g id="elgkeo18th4cl"><path d="M338.49,334.33l55.1,9.06s.57,14-4.92,26.48a28.56,28.56,0,0,1-21.84,16.68A162.72,162.72,0,0,1,349.17,388a44,44,0,0,1-9.22,5.43c-4.64,1.85-25,10.36-25,10.36s-5.71-4.83-5.14-14.9L329,368.45c4.34-5.29,5.87-7,8.28-8.2C336.09,343.43,337.23,341.43,338.49,334.33Z" style="opacity: 0.3; transform-origin: 351.688px 369.06px;" class="animable"></path></g><g id="el0c77959wqhfl"><g style="opacity: 0.3; transform-origin: 333.16px 372.665px;" class="animable"><path d="M308.49,351.89a127.17,127.17,0,0,1,7.44,12.36l-4.5-1.43c-5.07-12.08-6.11-15.6-14.21-21.26C297.22,341.56,303,343.75,308.49,351.89Z" id="eluayaegtgd6" class="animable" style="transform-origin: 306.575px 352.905px;"></path><path d="M353.48,381.21s-3.07,4.46-13,8.67c-5.59,2.37-22.89,9.15-28.15,10.39a13.86,13.86,0,0,0,2.68,3.5s20.33-8.51,25-10.36a28.52,28.52,0,0,0,3-1.39l1.24-.69c1-.6,2-1.21,2.77-1.74s1.41-1,1.8-1.27c.2-.14.33-.24.4-.3l.05,0C353.55,384.17,353.48,381.21,353.48,381.21Z" id="elh2fya7hfcpt" class="animable" style="transform-origin: 332.905px 392.49px;"></path><path d="M331.93,365c-2,2.3-2.9,3.42-2.9,3.42l-2.82-.92s5-5.44,8.22-8.3a11.14,11.14,0,0,1,1.85-1.44c-1.63-4.27-1.57-11.28-1.57-11.28A22.65,22.65,0,0,0,339,356.76a18.58,18.58,0,0,1,8.1-.1l22,3.73s-15.68-1.41-23.85-1.72S333.9,362.72,331.93,365Z" id="elhjaiqq0ylwd" class="animable" style="transform-origin: 347.655px 357.45px;"></path></g></g><path d="M280.6,401c-4,1.56-6.41,3.13-8.24,5.53s-2.39,4.82-.65,7.72,4.94,6.3,8.73,6.08,6.14-1.17,9.66-3.08Z" style="fill: rgb(38, 50, 56); transform-origin: 280.379px 410.67px;" id="elgoyucb3kphq" class="animable"></path><path d="M312.29,404.35c.06,1.19-5,3.56-10.15,6-5.58,2.66-6.95,4.4-11.51,6.64-5.2,2.56-7.17,2.7-11.21,1.58s-9-6.9-5.55-12.21c2.83-4.34,6.49-5.53,12.05-7a105,105,0,0,0,13-4.2c4-1.56,7.32-4.36,8.15-3.39-.57.28-4.77,2.87-4,3.57.2.37.8.25,1.83-.17a1.73,1.73,0,0,1,1.44-.07,2.76,2.76,0,0,1,1,1.25,31.38,31.38,0,0,1,1.26,3.18c.31.74.18.31.47,1.05a8.2,8.2,0,0,1,.86,2.85c-.05.46-.38.6-.74.83s-.85.49-1.18.75c-.13.1-.37.44-.29.62s.85.15,1.15,0,.81-.25,1.17-.38S311.38,404.78,312.29,404.35Z" style="fill: rgb(69, 90, 100); transform-origin: 292.5px 405.404px;" id="el9xmsf7867m" class="animable"></path><path d="M292.42,416.16c-.75.38-5.47,2.58-6.95,1.26s2.18-3.7,2.18-3.7.58-3.56-3.72-8.8c-.75.58-3.85.55-3.81-1.28s5.25-4.07,5.32-4.1c-5.32,1.42-8.83,2.65-11.57,6.86-3.47,5.31,1.51,11.09,5.55,12.21s6,1,11.21-1.58C291.16,416.77,292,416.43,292.42,416.16Z" style="fill: rgb(55, 71, 79); transform-origin: 282.561px 409.411px;" id="el437vacmlze" class="animable"></path><path d="M287.14,413.37c-2,.65-.61,2.45,2.27,1.86,4.32-.87,7.92-3.32,12.73-4.84,5.2-2.48,10.5-4.79,10.16-6.11-.93.35-2.92,1.18-2.92,1.18-.39.17-1.4.54-1.4.54-3.94,1.71-8.3,4.44-12.57,5.6C291.65,412.62,289.11,412.71,287.14,413.37Z" style="fill: rgb(55, 71, 79); transform-origin: 299.257px 409.814px;" id="el6lsho3uohr" class="animable"></path><path d="M284.22,405.6c1.8-1.05,2.11-1.94,5.65-3.56s9.51-5.1,13.2-7.25a47.54,47.54,0,0,0,4-3c-.61-.7-2.86-.05-5.11,1.37s-3.63,2.32-5.87,3.48c-4.33,2.61-9.28,4.37-11.76,6S282.41,406.64,284.22,405.6Z" style="fill: rgb(55, 71, 79); transform-origin: 294.866px 398.681px;" id="el6ohwkaykxpl" class="animable"></path><path d="M284,405.12a.7.7,0,0,0,.1.16,15.69,15.69,0,0,1,3.38,8.72.51.51,0,0,0,.49.49.43.43,0,0,0,.4-.5,16.6,16.6,0,0,0-3.67-9.4.43.43,0,0,0-.63,0A.52.52,0,0,0,284,405.12Z" style="fill: rgb(240, 240, 240); transform-origin: 286.167px 409.471px;" id="elc9h86t4mwaw" class="animable"></path><path d="M287.45,402.56a.46.46,0,0,0,.09.15,21.45,21.45,0,0,1,4.17,10.3.53.53,0,0,0,.51.47.44.44,0,0,0,.39-.52,22.36,22.36,0,0,0-4.45-10.91.43.43,0,0,0-.64,0A.5.5,0,0,0,287.45,402.56Z" style="fill: rgb(240, 240, 240); transform-origin: 290.014px 407.694px;" id="elqf6pbtqirbm" class="animable"></path><path d="M295.15,412.64a.49.49,0,0,0,.42.32.43.43,0,0,0,.43-.47c-.21-6.32-4.28-12.25-4.47-12.45a.41.41,0,0,0-.63,0,.53.53,0,0,0,0,.7s4,5.83,4.16,11.71A.46.46,0,0,0,295.15,412.64Z" style="fill: rgb(240, 240, 240); transform-origin: 293.385px 406.426px;" id="elpgom7nw8ze" class="animable"></path><path d="M298.38,410.58a.5.5,0,0,0,.41.31.42.42,0,0,0,.44-.46,18.56,18.56,0,0,0-4.71-11.81.41.41,0,0,0-.63,0,.55.55,0,0,0,.08.7,17.88,17.88,0,0,1,4.36,11A.54.54,0,0,0,298.38,410.58Z" style="fill: rgb(240, 240, 240); transform-origin: 296.516px 404.681px;" id="el0d77i6andwr" class="animable"></path><path d="M302.57,408.81a.54.54,0,0,0,.41.31.42.42,0,0,0,.44-.45c0-6.57-4.64-11.66-4.85-11.86a.41.41,0,0,0-.63,0,.52.52,0,0,0,.06.7c.05.05,4.5,5,4.52,11.07A.86.86,0,0,0,302.57,408.81Z" style="fill: rgb(235, 235, 235); transform-origin: 300.627px 402.891px;" id="el440rwf7yemq" class="animable"></path></g><g id="freepik--Top--inject-26" class="animable" style="transform-origin: 338.975px 304.45px;"><g id="freepik--Arm--inject-26" class="animable" style="transform-origin: 337.563px 301.555px;"><path id="freepik--arm--inject-26" d="M351.61,275.68c-9.22.05-12.34,5.41-13.15,10.46-.94,5.8-1.89,19.84-1.89,19.84l-13.22,10.7,8.09,10.75s10.19-5.29,14.23-7.7c4.95-2.94,4.73-5.05,5.26-13S352.08,280.24,351.61,275.68Z" style="fill: rgb(255, 168, 167); transform-origin: 337.563px 301.555px;" class="animable"></path></g><path d="M394.1,352.91c.57-10.91-.16-23.25-2.24-40.52-.66-5.52-3.08-28.36-4.54-32.49l-11-2.85s-9.51-1-21.26-1.33l-3.47,0c-.73.76-11.24,9.38-14.5,18.74-1.85,5.33-2.38,14.32,3.85,19,0,0,.94,9.33.94,9.41s-5.72,8.91-6.68,11c1.44,9.2,12.45,17.34,28.07,20.59C382.05,358.29,393,353.61,394.1,352.91Z" style="fill: rgb(108, 53, 222); transform-origin: 364.743px 315.835px;" id="elg97zbidvoxr" class="animable"></path><g id="elng5wp0pni5s"><path d="M353.52,318.42s4.49,5.44,13.31,4.36a16.3,16.3,0,0,0,12.51-8.26s-1.23,9.48-12.1,10.8A13.12,13.12,0,0,1,353.52,318.42Z" style="opacity: 0.3; transform-origin: 366.43px 320.003px;" class="animable"></path></g><g id="freepik--Laptop--inject-26" class="animable" style="transform-origin: 338.975px 330.709px;"><path d="M362.86,363.39l-.07,1a3,3,0,0,1-1.64,2.46L332,381.22a2.9,2.9,0,0,1-1.5.29,2.94,2.94,0,0,1-1.45-.48l-49.58-33.1a3,3,0,0,1-1.3-2.65l0-.72,52.41,35Z" style="fill: rgb(235, 235, 235); transform-origin: 320.512px 363.039px;" id="elabnulavq14" class="animable"></path><path d="M278.23,344.56l31.7-15.64a1.74,1.74,0,0,1,1.75.11l51,34.06a.39.39,0,0,1,0,.67l-32,15.8Z" style="fill: rgb(250, 250, 250); transform-origin: 320.55px 354.147px;" id="ellx6j9cr2l9" class="animable"></path><polygon points="331.1 376.98 348.19 368.55 301.83 337.6 284.65 345.97 331.1 376.98" style="fill: rgb(224, 224, 224); transform-origin: 316.42px 357.29px;" id="elf8zktjyvy" class="animable"></polygon><polygon points="340.92 351.08 340.6 351.23 332.22 355.37 318.4 346.14 318.11 345.95 326.81 341.66 340.92 351.08" style="fill: rgb(224, 224, 224); transform-origin: 329.515px 348.515px;" id="elwtpirf5u31b" class="animable"></polygon><polygon points="340.6 351.23 332.22 355.37 318.4 346.14 326.79 342 340.6 351.23" style="fill: rgb(230, 230, 230); transform-origin: 329.5px 348.685px;" id="elkmcgiyv8b3d" class="animable"></polygon><path d="M330.64,379.56l-.12,1.95a2.94,2.94,0,0,1-1.45-.48l-49.58-33.1a3,3,0,0,1-1.3-2.65l0-.72Z" style="fill: rgb(235, 235, 235); transform-origin: 304.412px 363.035px;" id="el96e1ziwe1ye" class="animable"></path><g id="el1h4ff66c7fs"><g style="mix-blend-mode: multiply; opacity: 0.5; transform-origin: 304.412px 363.035px;" class="animable"><path d="M330.64,379.56l-.12,1.95a2.94,2.94,0,0,1-1.45-.48l-49.58-33.1a3,3,0,0,1-1.3-2.65l0-.72Z" style="fill: rgb(224, 224, 224); transform-origin: 304.412px 363.035px;" id="elwufawt6zw2" class="animable"></path></g></g><path d="M292.34,338.45c1.6-2.33,3.6-4.39,5-6.83a42.86,42.86,0,0,1,4.72-4.3c4.84-3.58,6.11-3.51,12.26-5.57a26.67,26.67,0,0,0,9-5.07l8.09,10.75c-.9.53-1.77,1.06-2.61,1.6-1.38.88-3.13,4-6.26,5.25-4.15,1.64-9.07.63-9.51,1.85a8.94,8.94,0,0,1-.28,2.27,7.66,7.66,0,0,1,2.43-.67c.76,0,1.87.86,1.66,1.4s-.69.75-1.24,1.19c-.37.31-1.65,1.39-1.83,1.5a7.34,7.34,0,0,1-3.89.68,1.7,1.7,0,0,1-1.29-1.1,6.85,6.85,0,0,1-.9.33,2.27,2.27,0,0,1-1.7-.08,1.4,1.4,0,0,1-.55-.79,7.16,7.16,0,0,1-2.06-.39c-.93-.5-1-1.64-1.15-2.55a11.74,11.74,0,0,1-.18-3.45c-2.76,1.75-4.87,4.95-8.24,5.6C292.6,340.26,291,339.83,292.34,338.45Z" style="fill: rgb(255, 168, 167); transform-origin: 311.621px 329.608px;" id="elk5cwd0sfuy" class="animable"></path><g id="freepik--arm--inject-26" class="animable" style="transform-origin: 368.333px 321.133px;"><path d="M405,327.73c-1.44-13.46-2.84-25.64-4.95-35.48-1.16-5.44-5-11.25-12.74-12.35-7.52,4.65-5.43,20.33-4.66,24.15l4.17,23.69s-4.69,3.63-11.56,8c-5.81,3.69-9.61,6.69-16.2,7s-9.22,0-12.73,1.21c-1.87.67-6.12,2.22-7.59,2.84s-4.16,3-6.61,4.58.37,2.76,2.11,2.38a22.19,22.19,0,0,0,5.3-2.15,29.82,29.82,0,0,1,4.52-1.4,26.42,26.42,0,0,0-1.27,5.08c-.07.94-.35,2.07.42,2.81a7.48,7.48,0,0,0,1.92.95,1.42,1.42,0,0,0,.33.93,2.39,2.39,0,0,0,1.64.54,6.33,6.33,0,0,0,1-.08,1.75,1.75,0,0,0,1,1.43,7.61,7.61,0,0,0,4,.4c.2-.07,1.75-.77,2.2-1a4,4,0,0,0,1.54-.83c.36-.47-.48-1.66-1.25-1.83a7.83,7.83,0,0,0-2.56,0,8.63,8.63,0,0,0,.89-2.14c.77-1.07,5.72.39,10.23-.08,3.4-.36,6.05-3.4,7.6-4,10-3.73,15.73-5.21,25.91-10.47C406.89,337.2,405.76,334.71,405,327.73Z" style="fill: rgb(255, 168, 167); transform-origin: 368.333px 321.133px;" id="elgnfxmvggeb" class="animable"></path><path d="M343.19,350.48c.6-1.23,1.49-2.69,2.48-3a11.67,11.67,0,0,0-1.6,2.74C343.78,350.33,343.48,350.41,343.19,350.48Z" style="fill: rgb(242, 143, 143); transform-origin: 344.43px 348.98px;" id="elxgcsnn7fbw" class="animable"></path><path d="M345.14,359.08a10.77,10.77,0,0,1,.09-2.78,25.33,25.33,0,0,1,.54-2.73,12.39,12.39,0,0,1,.93-2.64,5.09,5.09,0,0,1,1.81-2.11,4.15,4.15,0,0,0-.83,1.08,7.62,7.62,0,0,0-.61,1.21,19.16,19.16,0,0,0-.78,2.6c-.23.88-.44,1.77-.66,2.66A24.81,24.81,0,0,0,345.14,359.08Z" style="fill: rgb(242, 143, 143); transform-origin: 346.8px 353.95px;" id="el6xarjgwzk8v" class="animable"></path><path d="M348.07,360.47a13.77,13.77,0,0,1,.18-2.72,24.46,24.46,0,0,1,.59-2.67,18.84,18.84,0,0,1,.91-2.58,5.3,5.3,0,0,1,1.55-2.24,3.7,3.7,0,0,0-.69,1.14c-.18.41-.33.83-.47,1.25-.29.85-.55,1.71-.79,2.58C348.87,357,348.41,358.69,348.07,360.47Z" style="fill: rgb(242, 143, 143); transform-origin: 349.681px 355.365px;" id="elyxj372hukgb" class="animable"></path><path d="M355.53,358.67a4.56,4.56,0,0,0-1.13.08c-.37.06-.64.23-1.1.35l.2-.29a1.13,1.13,0,0,1-.11.54,1.26,1.26,0,0,1-.28.4,1.69,1.69,0,0,1-.8.45,3.33,3.33,0,0,0,.5-.67,1.51,1.51,0,0,0,.14-.35,1.25,1.25,0,0,0,0-.31l0-.21.22-.07a3.35,3.35,0,0,1,1.08-.15A2.2,2.2,0,0,1,355.53,358.67Z" style="fill: rgb(242, 143, 143); transform-origin: 353.92px 359.312px;" id="elkxozdabs5oc" class="animable"></path></g><path d="M329.79,379.94a3.55,3.55,0,0,1-3-.43l-49.35-33A3.5,3.5,0,0,1,275.9,344l-3.43-33.85a2.81,2.81,0,0,1,0-.58,3.5,3.5,0,0,1,1.19-2.41l51.29,34.25a2.6,2.6,0,0,1,1.14,1.89Z" style="fill: rgb(108, 53, 222); transform-origin: 301.123px 343.629px;" id="el3m1t6tyu6kc" class="animable"></path><g id="eld6r0bh9l3v"><g style="opacity: 0.7; transform-origin: 301.123px 343.629px;" class="animable"><path d="M329.79,379.94a3.55,3.55,0,0,1-3-.43l-49.35-33A3.5,3.5,0,0,1,275.9,344l-3.43-33.85a2.81,2.81,0,0,1,0-.58,3.5,3.5,0,0,1,1.19-2.41l51.29,34.25a2.6,2.6,0,0,1,1.14,1.89Z" style="fill: rgb(255, 255, 255); transform-origin: 301.123px 343.629px;" id="elfgrua7xu6w7" class="animable"></path></g></g><path d="M330.64,379.56l-.36.18-.49.2-3.71-36.64a2.6,2.6,0,0,0-1.14-1.89l-51.29-34.25a3.24,3.24,0,0,1,.75-.49L325.8,341a2.59,2.59,0,0,1,1.13,1.89Z" style="fill: rgb(250, 250, 250); transform-origin: 302.145px 343.305px;" id="elt6ewtibu3b" class="animable"></path><path d="M302.91,347.14c-.23-2.27-2.35-5.39-4.73-7s-4.14-1-3.91,1.22,2.35,5.4,4.74,7S303.14,349.41,302.91,347.14Z" style="fill: rgb(108, 53, 222); transform-origin: 298.59px 344.255px;" id="el8tww0wz06vd" class="animable"></path></g><path d="M381.6,237.3c.06.26,1.54,1,1.81,1.26a8.22,8.22,0,0,1,1.39,1.56,11.37,11.37,0,0,1,1.6,4.2c.5,2.51.45,5.08.7,7.61a48.93,48.93,0,0,0,1.48,7.26,25.17,25.17,0,0,1,1,6.43,8.4,8.4,0,0,1-2.28,5.94,14.18,14.18,0,0,0-.17-6.51,13.21,13.21,0,0,1-.72,4,9.4,9.4,0,0,1-4.33,4.56,23.85,23.85,0,0,1-6.05,2.1A43.21,43.21,0,0,1,365.69,277a63.41,63.41,0,0,1-6.46-.36,18.54,18.54,0,0,1-8-2.27c-2.37-1.47-4.18-4.11-4-6.89a8.11,8.11,0,0,0-1,4.47,8.81,8.81,0,0,1-2.25-6.14,15.35,15.35,0,0,1,1.66-6.45,29.33,29.33,0,0,0,1.77-3.87,5.44,5.44,0,0,0,.07-3.79c-.39-.78-1-1.49-1.44-2.3a14.34,14.34,0,0,1-1.79-7.09c.25-5.1,3.09-11.82,12.34-14.12C364.36,226.24,379.28,227.29,381.6,237.3Z" style="fill: rgb(38, 50, 56); transform-origin: 366.779px 252.191px;" id="elqz83q87y97q" class="animable"></path><g id="freepik--Head--inject-26" class="animable" style="transform-origin: 364.458px 261.661px;"><g id="freepik--head--inject-26" class="animable" style="transform-origin: 364.458px 261.661px;"><g id="freepik--head--inject-26" class="animable" style="transform-origin: 364.458px 261.661px;"><path d="M378,263.58a5.85,5.85,0,0,0,5.14-2.18c2.63-3.09,2.75-6.13,1.39-8.09-1.13-1.61-3.77-2.56-5.55-1.36s-1.91,2.26-2.59,3.65c-.87,1.78-2-.85-2.11-1.61a8.4,8.4,0,0,1-.16-2.29c.08-.67,0-1-.65-1.34a32.73,32.73,0,0,0-6.77-2.66,25.35,25.35,0,0,1-2.68-.74,14.31,14.31,0,0,1-6.66-4.36,12.21,12.21,0,0,0,2.38,3.49,12.47,12.47,0,0,1-8.55-6.67,6.18,6.18,0,0,1-.65-2.14,29.52,29.52,0,0,0-3.17,7.54,49.29,49.29,0,0,0-.87,7.76c-.49,9.89,1.92,15.5,4.33,17.49a10.42,10.42,0,0,0,7.78,2.74l.14,3.71S349,287.4,362,285.9a20.51,20.51,0,0,0,14.38-8.83l-.56-14.95S376.08,263.31,378,263.58Z" style="fill: rgb(255, 168, 167); transform-origin: 365.911px 261.661px;" id="eli2xfa56xxqg" class="animable"></path><path d="M356.61,262.75a2.91,2.91,0,0,0,3.51,2.1,2.85,2.85,0,0,0,2.13-3.45Z" style="fill: rgb(177, 102, 104); transform-origin: 359.47px 263.167px;" id="el5j320yur9ub" class="animable"></path><path d="M362.31,262.33a2.87,2.87,0,0,1-2.19,2.52,3,3,0,0,1-1,0A2.93,2.93,0,0,1,362.31,262.33Z" style="fill: rgb(242, 143, 143); transform-origin: 360.715px 263.604px;" id="elka90o6g8gzh" class="animable"></path><path d="M348.08,247.76l3.7-1.39a1.92,1.92,0,0,0-2.5-1.16A2,2,0,0,0,348.08,247.76Z" style="fill: rgb(38, 50, 56); transform-origin: 349.872px 246.421px;" id="eldu7v85opm0s" class="animable"></path><path d="M363.15,245.94l3.81,1.82a2,2,0,0,0-.89-2.77A2.25,2.25,0,0,0,363.15,245.94Z" style="fill: rgb(38, 50, 56); transform-origin: 365.179px 246.27px;" id="elhunop8tunzw" class="animable"></path><path d="M343.53,248.51a2.62,2.62,0,0,0,.64,1.48,1.16,1.16,0,0,1,.27.53,24.38,24.38,0,0,0,.83,4,4.42,4.42,0,0,0,4.51,2.79,7.5,7.5,0,0,0,1.58-.15l.12,0a4.82,4.82,0,0,0,1.31-.49l.08-.05.11-.07.14-.09.13-.09.15-.11.13-.11a3.08,3.08,0,0,0,.26-.24,6,6,0,0,0,1.1-1.55c.73-1.42.65-3.39,1.76-3.64l.13,0h.14c1.5,0,1.24,2.15,2,3.67s2.08,3,5.33,3h.42l.34,0a6.07,6.07,0,0,0,.78-.12l.25-.05.24-.07.15-.05a4.87,4.87,0,0,0,.89-.4l.31-.19a3.6,3.6,0,0,0,.52-.43,5.17,5.17,0,0,0,1-1.44,24.33,24.33,0,0,0,1.06-4,1.8,1.8,0,0,1,.28-.59,2.9,2.9,0,0,0,.79-1.45,1.18,1.18,0,0,0-.85-1.26l-.79-.08a26,26,0,0,0-7.91.22c-2.53.68-3.43,1.45-4.83,1.45s-2.12-.77-4.46-1.45a22.68,22.68,0,0,0-7.39-.24l-.74.09A1.25,1.25,0,0,0,343.53,248.51ZM360,249.7a2.3,2.3,0,0,1,.73-.55l.13-.07.08,0,.36-.16a2.52,2.52,0,0,1,.33-.13,8,8,0,0,1,1.08-.33l.43-.1c.37-.08.74-.14,1.11-.19l.26,0c2.42-.22,3.9.28,4.43.74s.2,2.56-.08,3.62c0,0,0,.06,0,.08l0,.08c0,.13-.08.28-.12.43l-.09.27h0c-.05.15-.11.29-.18.45h0l-.07.15-.05.09a.93.93,0,0,1-.05.1l-.08.13a.64.64,0,0,1-.08.14l-.11.15-.11.16a4.13,4.13,0,0,1-3.44,1.54,4.51,4.51,0,0,1-3.5-1.21h0a4.32,4.32,0,0,1-1.08-2.12C359.56,251.73,359.45,250.36,360,249.7Zm-14.15-.86a2,2,0,0,1,.61-.36l0,0,.27-.1.16-.05.14,0,.09,0h0l.13,0,.56-.1.3,0,.19,0h.52a.66.66,0,0,1,.14,0h.13a8.79,8.79,0,0,1,1.11.08c1.71.2,3.48.92,3.92,1.57s.27,2,0,3.21a4.5,4.5,0,0,1-.25.8.14.14,0,0,0,0,.06.3.3,0,0,0,0,.08l0,.05-.05.1a1.86,1.86,0,0,1-.1.2,1.4,1.4,0,0,1-.1.16.16.16,0,0,1,0,.06l-.08.12-.07.09v0a4.11,4.11,0,0,1-3.65,1.59,3.85,3.85,0,0,1-4-3.78C345.51,251.4,345.27,249.3,345.8,248.84Z" style="fill: rgb(55, 71, 79); transform-origin: 357.408px 252.217px;" id="elegtultzjbkt" class="animable"></path><path d="M351.94,257.71l5.61,2.1.87-7c-.24-1-.49-2.09-1.4-2.13Z" style="fill: rgb(242, 143, 143); transform-origin: 355.18px 255.245px;" id="elcqohx23ie0b" class="animable"></path><path d="M370.35,248.33,379,252a8.93,8.93,0,0,0-1.26,1.09l-7.54-3Z" style="fill: rgb(55, 71, 79); transform-origin: 374.6px 250.71px;" id="elv6ydtxv14d" class="animable"></path></g></g><path d="M358.64,272.81c5.08-.41,12.28-1.9,14.18-9.19-.61,7.36-5,8.88-7.87,9.79a30.11,30.11,0,0,1-6.18,1.33Z" style="fill: rgb(242, 143, 143); transform-origin: 365.73px 269.18px;" id="elqhcjkz4xteb" class="animable"></path></g></g><circle cx="363.01" cy="252.16" r="1.51" style="fill: rgb(38, 50, 56); transform-origin: 363.01px 252.16px;" id="el95ykjd26c25" class="animable"></circle><circle cx="350.43" cy="252.16" r="1.51" style="fill: rgb(38, 50, 56); transform-origin: 350.43px 252.16px;" id="el6xohxa9b8rx" class="animable"></circle></g></g><g id="freepik--character-1--inject-26" class="animable" style="transform-origin: 209.9px 251.365px;"><g id="freepik--character--inject-26" class="animable" style="transform-origin: 209.9px 251.365px;"><g id="freepik--bottom--inject-26" class="animable" style="transform-origin: 125.212px 307.848px;"><path d="M135.35,303.53H107.24c-4.31,8.29-8.79,17.05-10,19.39A51.4,51.4,0,0,1,93.51,329c-.77,1.1-1.87,1.63-2.17,2.92-1.33,5.72,2.5,14.9,6.09,19.64a12.83,12.83,0,0,0,3.5,3.31,7.47,7.47,0,0,0,4.69,1.11,3.05,3.05,0,0,0,2.43-1.42,3.77,3.77,0,0,0,.15-2.11,67.46,67.46,0,0,1-.93-7.85c-.07-5.59,3.35-11,7-15.2C116.8,326.5,126.44,314.62,135.35,303.53Z" style="fill: rgb(255, 189, 167); transform-origin: 113.21px 329.772px;" id="ely6a2mye1zop" class="animable"></path><path d="M159.81,211.33s3.28,25.26,5.72,49c1.36,13.29-.29,17.19-3.7,22.24-4.24,6.29-11.41,12.56-18.61,19.68-8.55,8.46-27.46,26.32-30.54,29.71,0,0-10.56-2.84-15.15-10.94,0,0,6.47-14.72,12.56-26.36s12.16-20.68,12.16-20.68l-13.46-62.61Z" style="fill: rgb(69, 90, 100); transform-origin: 131.768px 271.645px;" id="eld2c1miiw3ej" class="animable"></path><path d="M101.87,325.67l-1-.35c4.41-11.55,21.83-44.1,28.9-50.14l.67.74C123.67,281.75,106.14,314.48,101.87,325.67Z" style="fill: rgb(55, 71, 79); transform-origin: 115.655px 300.425px;" id="elll4azaeil5" class="animable"></path><path d="M100.48,314.17c1.62,3.75,11.84,13.25,16.76,12.55l-5.72,6.67c-4.5.08-12.21-6.59-14.6-11.37Z" style="fill: rgb(55, 71, 79); transform-origin: 107.08px 323.78px;" id="eltvldu869i9m" class="animable"></path><path d="M108.79,211.33h0l13.46,62.61s-2.62,3.94-5.94,9.53l-.41.7-.36.62c-.91,1.56-1.88,3.24-2.86,5l1.85,8.62c.28,1.23-3,6.1-1.44,21.17.31,2.91,1.24,7.12,1.79,9.83a6.86,6.86,0,0,1,1.58-1.33c6.77-6.64,20-19.2,26.76-25.89q1.56-1.54,3.11-3c.27-5,.68-14.77.24-19.88-.52-6-4.09-35.58-4.09-35.58a24.69,24.69,0,0,0,7-5.82c2.71-3.09,5.57-10.61,5.57-10.61s.59-2.72,1.74-7.67Z" style="fill: rgb(55, 71, 79); transform-origin: 132.79px 270.37px;" id="eln923j7lras" class="animable"></path><path d="M86.25,335.62c-.78-.22-1.67,2.51-1.82,3.41s1.14,4.68,2.09,6.67,2.68,4.58,3.32,7.67c.59,2.92.1,8.31,2.32,12.46s8.15,8.79,16.38,9.21c2.52.12,5.61-.91,6.33-1.64a3.66,3.66,0,0,0,1.27-2.8Z" style="fill: rgb(38, 50, 56); transform-origin: 100.279px 355.329px;" id="elctqacuqutml" class="animable"></path><path d="M91.82,355.19a20.57,20.57,0,0,0-2.74-8c-1.58-3.15-4.12-7.3-3.69-10.84a11.72,11.72,0,0,1,4.72-5.37c2.56-1.76,3.12-4.09,4.53-3.58l-.62.9a39.39,39.39,0,0,0,3.09,5.12,2.92,2.92,0,0,1,.45,2.51,8,8,0,0,0,.2,4.36,14.1,14.1,0,0,1,.94-2.62,2.78,2.78,0,0,1,1.93-1.61c1.64-.52,3.92.55,5.09,1.12,1.79.87,3.93,1.63,4.69,3.07.64,1.22-.57,2.91-1.14,4-1.55,2.89-.54,6.38.34,9.31,1,3.16,2.52,7.62,4.58,10.23s3.68,3.94,2,6.89a5.67,5.67,0,0,1-2.61,2.08,8.85,8.85,0,0,1-3.28.67,19.14,19.14,0,0,1-12.82-4.17,15.07,15.07,0,0,1-3.85-5.29C92.45,361.61,92.22,358.87,91.82,355.19Z" style="fill: rgb(55, 71, 79); transform-origin: 101.115px 350.389px;" id="elkf173td7gop" class="animable"></path><path d="M112.37,360.71a17.8,17.8,0,0,0,1.82,3c2.09,2.65,3.68,3.94,2,6.89a5.67,5.67,0,0,1-2.61,2.08,8.85,8.85,0,0,1-3.28.67,19.14,19.14,0,0,1-12.82-4.17A13.47,13.47,0,0,1,94.14,365C94.11,361.52,104.79,358.16,112.37,360.71Z" style="fill: rgb(69, 90, 100); transform-origin: 105.517px 366.592px;" id="el9kcg91ef3uu" class="animable"></path><path d="M142.67,376.59c-3.43-5.44-2.57-7.81-2.53-11.69,0-5.74.36-10.27.53-15.5q.36-10.29.76-20.57h-22.2c1.23,11.15,1.92,21.49,2.46,27.58.74,8.53,1.68,13.3,1.31,14.94-.27,1.21-1.06,3.13-.57,4.06.66,1.24,1.74,1.8,3.24,3.54a63.9,63.9,0,0,0,5.51,5.66,18.12,18.12,0,0,0,6,3.51c2.68,1,5.85,1.79,8.63,1.1,1-.25,3.19-.82,3.37-1.79a3.05,3.05,0,0,0-.74-2.11C145.68,381.18,145.32,380.79,142.67,376.59Z" style="fill: rgb(255, 189, 167); transform-origin: 134.206px 359.155px;" id="elnpyvkgvi" class="animable"></path><path d="M101.57,211.09s-.94,10.89-.71,17a120.09,120.09,0,0,0,4.48,27.71c2.35,8.28,11.12,38.92,11.8,41.9-1.29,6.33-2.61,11.92-.85,25.91,2.54,20.18,5.85,38,5.85,38s11.93,2.49,18.66-1.06c0,0,4.15-56.48,4.17-69.62,0-11.41-5.76-49.11-5.76-49.11s19.52-8.6,20.6-30.5Z" style="fill: rgb(69, 90, 100); transform-origin: 130.317px 286.774px;" id="el6zjf1z7gfjd" class="animable"></path><g id="el1eg0ulyzay1"><path d="M122.5,293.81c-.48-2.3-1.9-8-3.7-15.23-3-12.13-7.15-28.74-8.46-36.12-1.58-8.8-.64-27-.63-27.16l-1-.05c0,.18-1,18.46.64,27.37,1.32,7.41,5.29,23.36,8.48,36.18,1.72,6.93,3.21,12.91,3.68,15.2.54,2.58.21,4.92-.24,8.15a79.29,79.29,0,0,0-.48,20.73c.94,9.76,3.89,29.07,5.55,39.62l1,.14c-1.66-10.48-4.65-30-5.59-39.84a78.19,78.19,0,0,1,.47-20.51C122.71,299.08,123.06,296.55,122.5,293.81Z" style="opacity: 0.2; transform-origin: 117.874px 288.945px;" class="animable"></path></g><path d="M120.66,353.12c3.75,2.09,17.22,2.52,20.75-1.05l-.52,8.7c-3.6,2.8-13.88,3.44-18.93,1Z" style="fill: rgb(55, 71, 79); transform-origin: 131.035px 357.676px;" id="elu4sb8yylelc" class="animable"></path><path d="M121.68,382.16c-.31.26-.32,2.12.1,3s1.81,1.87,3.93,3.11,5.13,1.94,7.12,4.79c1.42,2,4.15,6.48,8.77,8.91s10.77,3.63,16.4,1.62,6.11-4.42,6-6.53Z" style="fill: rgb(38, 50, 56); transform-origin: 142.734px 393.383px;" id="elhnlpt0niygk" class="animable"></path><path d="M143.89,373.63a5.94,5.94,0,0,0,1.28,2.72c1.77,2.8,4.72,5.33,7.18,7.61a77.46,77.46,0,0,0,8.32,6.54c2.39,1.65,4,3.42,3.92,5-.21,4.84-6.12,7.22-12.27,7.3a18.23,18.23,0,0,1-15.19-7.17c-2.85-3.56-3.42-5.45-6.76-7.29-2.83-1.57-6-1.84-8.78-5.73-1.1-2.65.08-5.55.4-8.27a28.47,28.47,0,0,0-.09-3.69,1.49,1.49,0,0,1,1.11-1.55c0,.24.12,1.2.12,1.2a4.77,4.77,0,0,0,2.08,1.69c1.49.68,2.82,0,3.82,1.18a9.3,9.3,0,0,1,1,1.84,9,9,0,0,0,1.62,2.4,14.85,14.85,0,0,1-.49-2.49c0-1.36-.16-2.27.56-2.78a17.86,17.86,0,0,1,3.4-1.54,22.06,22.06,0,0,1,5.19-1.27c1.23-.22,2.29-.2,3.05.84.52.71.47,2.37.51,3.37A.37.37,0,0,0,143.89,373.63Z" style="fill: rgb(55, 71, 79); transform-origin: 142.862px 385.956px;" id="el7laj03rrg3f" class="animable"></path><path d="M157.72,388.3c1.14.87,2.3,1.71,3.41,2.48,2.39,1.66,4,3.43,3.92,5-.21,4.84-6.12,7.21-12.27,7.29a19.72,19.72,0,0,1-10.37-2.76,12.52,12.52,0,0,1-1.24-.86C140.76,396,147.58,388.21,157.72,388.3Z" style="fill: rgb(69, 90, 100); transform-origin: 153.103px 395.686px;" id="ellxf4a6n04sd" class="animable"></path></g><g id="freepik--top--inject-26" class="animable" style="transform-origin: 214.349px 178.553px;"><g id="freepik--arm--inject-26" class="animable" style="transform-origin: 179.993px 154.646px;"><g id="freepik--arm--inject-26" class="animable" style="transform-origin: 180.103px 154.646px;"><path d="M196.81,142.16l12.83,5c-1.94,7.14-2.36,10.22-3.88,16.79-2.13,9.22-2.76,12.71-4.72,17.29-1.6,3.76-4.09,8.54-13.68,4.75-11.6-4.58-32.08-12.87-32.08-12.87l-9.95-27.21s7.91.2,12.86,2.5c8.44,3.92,27.87,13.07,27.87,13.07C186.11,160.76,196.81,142.16,196.81,142.16Z" style="fill: rgb(255, 189, 167); transform-origin: 177.485px 164.768px;" id="elogjvqbu4ac" class="animable"></path><path d="M214.68,129.63c1.18,9.22-3.3,14.3-5,17.56,0,0-9,2.37-13.26-4.23,1.44-2.63,2.21-4.11.17-6.64a21.72,21.72,0,0,1-1.87-2.53,64.54,64.54,0,0,0-3.19-5.69,1.39,1.39,0,0,1-.35-1.46,1.06,1.06,0,0,1,1-.64,2.36,2.36,0,0,1,.95.18,11.44,11.44,0,0,1,3.24,2.31.39.39,0,0,0,.21.13c.22,0,.35-.21.41-.42.45-1.62.1-3.4.67-5a1.92,1.92,0,0,1,.27-.51c.78-1,2.64-.8,3.72-.65a9.73,9.73,0,0,1,4.38,1.8C210.19,126.93,214.68,129.63,214.68,129.63Z" style="fill: rgb(240, 153, 122); transform-origin: 202.989px 134.76px;" id="els1s8thzsp6k" class="animable"></path><path d="M186.06,161.51c-.67,4.48-.4,10.79,1.76,15-5.22-6.76-4-16.09-4-16.09Z" style="fill: rgb(240, 153, 122); transform-origin: 185.758px 168.465px;" id="elqy58gekeqem" class="animable"></path></g><path d="M177.94,157.38s-6.36-3.47-14.93-7.33-10.53-5.17-17.9-4.9l6.53,27.19s11.16,4.12,21.65,8.33C177.81,173.25,178.72,166.18,177.94,157.38Z" style="fill: rgb(55, 71, 79); transform-origin: 161.65px 162.893px;" id="eljvtb48nrz" class="animable"></path></g><g id="freepik--top--inject-26" class="animable" style="transform-origin: 128.816px 163.658px;"><g id="freepik--Chest--inject-26" class="animable" style="transform-origin: 128.816px 187.171px;"><path id="freepik--chest--inject-26" d="M119.84,148a83.12,83.12,0,0,0-18.92,7.09A35.89,35.89,0,0,0,97,175.67c.37,3.81,3.47,10.65,4.33,22.23.49,6.5-.66,9.85-1.39,24.79,0,0,7.83,8.34,32.9,6.13,18.9-1.66,28-12.41,28-12.41s-1.49-23.62-2.84-38.66c-1.81-20.19-5.59-29.89-12.95-32.6C139.24,145.32,128.07,146.05,119.84,148Z" style="fill: rgb(245, 245, 245); transform-origin: 128.816px 187.171px;" class="animable"></path></g><path d="M123.39,182.34a.18.18,0,0,1-.17-.05.29.29,0,0,1-.09-.19L122.3,175a.34.34,0,0,1,0-.22c0-.07.08-.12.15-.13l2.44-.64a1.58,1.58,0,0,1,.91,0,1.55,1.55,0,0,1,.63.38,1.91,1.91,0,0,1,.39.62,2.35,2.35,0,0,1,.18.69,2.44,2.44,0,0,1,0,.6,2.84,2.84,0,0,1-.11.48,2.36,2.36,0,0,1-.16.35,1.35,1.35,0,0,1-.13.21,1.81,1.81,0,0,1,.55.53,2.18,2.18,0,0,1,.34,1,3.55,3.55,0,0,1,0,.86,3.32,3.32,0,0,1-.25.83,2.26,2.26,0,0,1-.5.68,1.83,1.83,0,0,1-.75.41Zm2.54-6.3a.76.76,0,0,0-.27-.58.74.74,0,0,0-.65-.05l-1.47.38.2,1.69,1.46-.38a1,1,0,0,0,.61-.38A1.06,1.06,0,0,0,125.93,176Zm-1.81,4.69,1.53-.4a1,1,0,0,0,.64-.43,1.19,1.19,0,0,0,.13-.73.9.9,0,0,0-.3-.63.79.79,0,0,0-.69-.09l-1.53.41Z" style="fill: rgb(224, 224, 224); transform-origin: 124.899px 178.144px;" id="elmbiz9u7qsi" class="animable"></path><path d="M130.3,172.6a1.79,1.79,0,0,1,1.65.22,2.38,2.38,0,0,1,.74,1.63,3.39,3.39,0,0,1-.12,1.44,2.32,2.32,0,0,1-.71,1.05l1.46,2.41a.76.76,0,0,1,0,.11.31.31,0,0,1,0,.19.17.17,0,0,1-.12.1l-.7.19a.25.25,0,0,1-.26,0,.83.83,0,0,1-.13-.16l-1.39-2.27-1.1.29.3,2.55a.37.37,0,0,1,0,.23.22.22,0,0,1-.14.13l-.67.17a.17.17,0,0,1-.17,0,.31.31,0,0,1-.09-.19l-.84-7.09a.37.37,0,0,1,.05-.23.22.22,0,0,1,.14-.13Zm-.84,3.78,1.2-.31a1.42,1.42,0,0,0,.73-.42,1.15,1.15,0,0,0,.18-.91c0-.41-.17-.66-.37-.75a1.21,1.21,0,0,0-.78,0l-1.2.32Z" style="fill: rgb(224, 224, 224); transform-origin: 130.671px 176.697px;" id="eluwp9mh0l2q" class="animable"></path><path d="M139.41,177.74l-2.84-6.41a.83.83,0,0,0-.15-.24.19.19,0,0,0-.21-.05l-.91.24a.32.32,0,0,0-.19.15,1,1,0,0,0-.08.31l-1.22,7.47v.08a.27.27,0,0,0,.1.19.17.17,0,0,0,.16.05l.6-.16a.32.32,0,0,0,.22-.16.6.6,0,0,0,.07-.2l.21-1.31.14-.85,2.16-.57.32.73.5,1.12a.42.42,0,0,0,.11.16.24.24,0,0,0,.24,0l.6-.15a.22.22,0,0,0,.14-.13.37.37,0,0,0,.05-.23A.64.64,0,0,0,139.41,177.74ZM136,172.85l1,2.16-1.36.36Z" style="fill: rgb(224, 224, 224); transform-origin: 136.621px 175.28px;" id="el58upbrjemx6" class="animable"></path><path d="M144,176.92a.26.26,0,0,1-.23,0l-.12-.13-2.85-3.95.53,4.52a.34.34,0,0,1-.05.22.2.2,0,0,1-.14.13l-.67.18a.16.16,0,0,1-.17,0,.29.29,0,0,1-.09-.19l-.83-7.09a.34.34,0,0,1,0-.22c0-.07.08-.12.14-.13l.58-.15a.21.21,0,0,1,.23,0l.13.12,2.85,4-.53-4.52a.37.37,0,0,1,0-.23.27.27,0,0,1,.15-.13l.67-.17a.16.16,0,0,1,.17,0,.31.31,0,0,1,.09.19l.83,7.09a.45.45,0,0,1,0,.23.27.27,0,0,1-.15.13Z" style="fill: rgb(224, 224, 224); transform-origin: 142.033px 173.535px;" id="elvd9s44phdg" class="animable"></path><path d="M147.43,168.09a2.45,2.45,0,0,1,1.09-.07,1.72,1.72,0,0,1,.82.41,2.29,2.29,0,0,1,.58.84,5.18,5.18,0,0,1,.34,1.2c.09.53.15,1.07.19,1.62a5.51,5.51,0,0,1,0,1.3,3.6,3.6,0,0,1-.34,1.08,2.58,2.58,0,0,1-.67.8,2.85,2.85,0,0,1-1,.49l-2.08.55a.18.18,0,0,1-.17-.05.29.29,0,0,1-.09-.19L145.2,169a.34.34,0,0,1,0-.22.23.23,0,0,1,.15-.13Zm1.71,2.67a2.9,2.9,0,0,0-.18-.63,1.23,1.23,0,0,0-.32-.45,1,1,0,0,0-.46-.24,1.38,1.38,0,0,0-.63,0l-1.11.29.58,4.94,1.15-.3a1.39,1.39,0,0,0,.57-.28,1.53,1.53,0,0,0,.38-.46,2,2,0,0,0,.19-.59,3.15,3.15,0,0,0,0-.69C149.29,171.84,149.23,171.3,149.14,170.76Z" style="fill: rgb(224, 224, 224); transform-origin: 147.835px 172.152px;" id="eln3cd6om2a8e" class="animable"></path><g id="freepik--head--inject-26" class="animable" style="transform-origin: 123.751px 126.278px;"><path d="M109.46,108.76s-2.9.41-4.56,4.21c-.84,1.91-1.3,5.32,2,14.77a39.16,39.16,0,0,0,5.34,10.31,4.78,4.78,0,0,0,2.91,2l-.69-7.38-.62-5.14s3.91-4,4-7.77a11.86,11.86,0,0,0-1.9-7.37Z" style="fill: rgb(55, 71, 79); transform-origin: 111.082px 124.405px;" id="elktauhd4tdn7" class="animable"></path><path d="M108.47,109.07c.44-4.2,5.38-9.51,15.52-10.73,8.3-1,13.37,1.54,16.59,6.2s1.73,11.09,1.73,11.09l-26.29,0Z" style="fill: rgb(55, 71, 79); transform-origin: 125.562px 106.877px;" id="elq4ovjj23kyc" class="animable"></path><path d="M107.81,135.3c4,1.61,5.5-1.54,5.5-1.54l1.63,15.63c8,9.35,27.37,4.08,18.83-2.76l-.27-3.73a28.14,28.14,0,0,0,3.29-.58,8.82,8.82,0,0,0,6.75-7.07c1.13-5.54.48-14.26-2.18-23.38-.52-1.76-1.42-3.66-3.11-4.36-4.21-1.74-7.78,1.41-13.31,4-2.28,1.08-8,1.86-9.5,1.25,2.12,2.06,1.36,7.79,1,9.62-.59,2.63-1.59,4-2.13,4.11-2.29.65-2.69-1.33-3.8-2.35a4.29,4.29,0,0,0-6.55,2A7,7,0,0,0,107.81,135.3Z" style="fill: rgb(255, 189, 167); transform-origin: 123.751px 130.721px;" id="elseno88gan" class="animable"></path><path d="M118.72,139.47c1,3.71,6.29,5.84,14.92,5.47l-.14-2a40.07,40.07,0,0,1-6.36-.15C123.06,142.35,118.72,139.47,118.72,139.47Z" style="fill: rgb(240, 153, 122); transform-origin: 126.18px 142.226px;" id="el297bz4kc15d" class="animable"></path><path d="M125.48,115.66l-3.15,2.61a2.15,2.15,0,0,1,.29-3A2,2,0,0,1,125.48,115.66Z" style="fill: rgb(55, 71, 79); transform-origin: 123.666px 116.553px;" id="elssieprpcjlh" class="animable"></path><path d="M139.87,115.71,136,114.33a2,2,0,0,1,2.56-1.29A2.16,2.16,0,0,1,139.87,115.71Z" style="fill: rgb(55, 71, 79); transform-origin: 137.984px 114.32px;" id="elbja9583wokj" class="animable"></path><path d="M124.58,121.26a1.67,1.67,0,1,0,1.49-1.83A1.66,1.66,0,0,0,124.58,121.26Z" style="fill: rgb(38, 50, 56); transform-origin: 126.241px 121.091px;" id="elukjsrel2bg" class="animable"></path><path d="M136.47,120a1.67,1.67,0,1,0,3.32-.34,1.67,1.67,0,1,0-3.32.34Z" style="fill: rgb(38, 50, 56); transform-origin: 138.13px 119.83px;" id="eldj9bmgux7js" class="animable"></path><path d="M130.72,118.37l2.55,10.6,5.62-2.66C136.77,122.35,133.3,120,130.72,118.37Z" style="fill: rgb(240, 153, 122); transform-origin: 134.805px 123.67px;" id="elvaksty43zwm" class="animable"></path><path d="M129.09,131.26a2.87,2.87,0,0,0,5.66,1Z" style="fill: rgb(177, 102, 104); transform-origin: 131.898px 132.947px;" id="ellr2c210ts0p" class="animable"></path><path d="M129.09,132.16a2.85,2.85,0,0,0,2.33,2.42,2.77,2.77,0,0,0,1.15,0,3.19,3.19,0,0,0-3.48-2.39Z" style="fill: rgb(242, 143, 143); transform-origin: 130.83px 133.4px;" id="elrx2l1l44ym" class="animable"></path></g></g><g id="freepik--Megaphone--inject-26" class="animable" style="transform-origin: 239.271px 182.463px;"><path d="M172.15,165.09l15.94-16.35c.33,23.61,6.32,57.5,14.62,81.25l-6.37,6.54C187.79,223.24,178.45,193.84,172.15,165.09Z" style="fill: rgb(55, 71, 79); transform-origin: 187.43px 192.635px;" id="el4dbvmjixgnp" class="animable"></path><path d="M149.67,169.53l10.18,9.84,8.61,29.85a39.63,39.63,0,0,0,27.88,27.31h0c-9.43-16-18.22-45.33-24.19-71.44Z" style="fill: rgb(69, 90, 100); transform-origin: 173.005px 200.81px;" id="elz9trki3g4wf" class="animable"></path><path d="M183.86,198.36l-.47.48a3.75,3.75,0,0,1-3.25.92l-5.07-1.3c-1-.26-1.65.36-1.36,1.4l.18.63a3.72,3.72,0,0,0,2.42,2.36l5.14,1.32a3.65,3.65,0,0,0,3.23-.93l.43-.46a3.81,3.81,0,0,0,.82-3.29l-.19-.65A1,1,0,0,0,183.86,198.36Z" style="fill: rgb(108, 53, 222); transform-origin: 179.83px 201.038px;" id="eljb965pbw8kb" class="animable"></path><path d="M187.29,208l-.47.48a3.73,3.73,0,0,1-3.24.91l-5.07-1.29c-1-.27-1.65.36-1.36,1.39l.18.64a3.75,3.75,0,0,0,2.41,2.36l5.15,1.31a3.65,3.65,0,0,0,3.23-.93l.43-.46a3.8,3.8,0,0,0,.81-3.29l-.18-.64A1,1,0,0,0,187.29,208Z" style="fill: rgb(108, 53, 222); transform-origin: 183.266px 210.663px;" id="elnbjwrkqm2u" class="animable"></path><path d="M190.73,217.57l-.47.48A3.72,3.72,0,0,1,187,219L182,217.67c-1-.27-1.65.36-1.36,1.39l.17.64a3.77,3.77,0,0,0,2.42,2.36l5.15,1.32a3.64,3.64,0,0,0,3.22-.94L192,222a3.85,3.85,0,0,0,.81-3.29l-.19-.65C192.32,217,191.48,216.8,190.73,217.57Z" style="fill: rgb(108, 53, 222); transform-origin: 186.734px 220.277px;" id="ely6u5bovseul" class="animable"></path><path d="M144.22,161a28.37,28.37,0,1,0,19.64-35A28.38,28.38,0,0,0,144.22,161Z" style="fill: rgb(69, 90, 100); transform-origin: 171.53px 153.314px;" id="elkqk37wbo1rg" class="animable"></path><path d="M158.84,160.62l35.83,9.14a28.38,28.38,0,0,1-50.08-25.34C144.11,152.07,147.32,157.69,158.84,160.62Z" style="fill: rgb(55, 71, 79); transform-origin: 168.915px 163.058px;" id="eluxkqw4xac9" class="animable"></path><path d="M202.52,126.89h0c-4.24-1.07-9.14.4-13.85,4.6-.5.44-1,.91-1.49,1.41s-1.13,1.21-1.68,1.87a35.9,35.9,0,0,0-2.55,3.43,45.91,45.91,0,0,0-3.9,7.16,55.8,55.8,0,0,0-4.69,22,39.53,39.53,0,0,0,1.36,10.54c2,6.94,5.72,11.21,10.27,12.52l-16-4.06v0a18.49,18.49,0,0,1-12.42-13.06,38.84,38.84,0,0,1-1.36-10.05,55.53,55.53,0,0,1,4.68-22.48,47.15,47.15,0,0,1,3.9-7.16,33.24,33.24,0,0,1,2.56-3.43c.54-.66,1.1-1.28,1.68-1.87a19.6,19.6,0,0,1,1.5-1.4,18.29,18.29,0,0,1,15.66-4.12h0l.45.1.56.16Z" style="fill: rgb(108, 53, 222); transform-origin: 179.365px 156.42px;" id="elwnes217oi58" class="animable"></path><g id="el571d7t005g9"><path d="M170,186.37v0a18.49,18.49,0,0,1-12.42-13.06,38.84,38.84,0,0,1-1.36-10.05l18.13,4.14a39.53,39.53,0,0,0,1.36,10.54c2,6.94,5.72,11.21,10.27,12.52Z" style="opacity: 0.1; transform-origin: 171.1px 176.86px;" class="animable"></path></g><path d="M213.15,139.53c4,14.26-1.12,34.4-11.46,45-5.2,5.33-10.73,7.23-15.45,6l-.26-.07c-4.55-1.31-8.31-5.58-10.27-12.52-4-14.26,1.13-34.4,11.46-45,5.16-5.28,10.65-7.2,15.34-6S211.14,132.39,213.15,139.53Z" style="fill: rgb(108, 53, 222); transform-origin: 194.431px 158.743px;" id="elnt0z0q1pnqq" class="animable"></path><g id="el1z9fva42a9w"><path d="M213.15,139.53c4,14.26-1.12,34.4-11.46,45-5.2,5.33-10.73,7.23-15.45,6l-.26-.07c-4.55-1.31-8.31-5.58-10.27-12.52-4-14.26,1.13-34.4,11.46-45,5.16-5.28,10.65-7.2,15.34-6S211.14,132.39,213.15,139.53Z" style="opacity: 0.2; transform-origin: 194.431px 158.743px;" class="animable"></path></g><path d="M280.63,116.59s-19.29,17.9-29.17,56.67a158.78,158.78,0,0,0-3.91,21.16c-3,26.44,2.4,42.55,2.4,42.55-11.35-14.56-24.49-29.25-42.1-38.38a221.27,221.27,0,0,0-21.16-9.52h0c-4.28-1.11-7.74-5.15-9.55-11.56A40.24,40.24,0,0,1,176,163.66a53.84,53.84,0,0,1,1.51-9.26c2-7.88,5.76-15.33,10.75-20.45,4.65-4.76,9.63-6.65,13.92-5.57v0a222.21,222.21,0,0,0,23.14,1.78C245.13,130.55,263.7,123.94,280.63,116.59Z" style="fill: rgb(108, 53, 222); transform-origin: 228.231px 176.78px;" id="elt12lozhg1ws" class="animable"></path><g id="el5rl9f8ulsnp"><path d="M280.63,116.59s-19.29,17.9-29.17,56.67a158.78,158.78,0,0,0-3.91,21.16c-3,26.44,2.4,42.55,2.4,42.55-11.35-14.56-24.49-29.25-42.1-38.38a221.27,221.27,0,0,0-21.16-9.52h0c-4.28-1.11-7.74-5.15-9.55-11.56A40.24,40.24,0,0,1,176,163.66a53.84,53.84,0,0,1,1.51-9.26c2-7.88,5.76-15.33,10.75-20.45,4.65-4.76,9.63-6.65,13.92-5.57v0a222.21,222.21,0,0,0,23.14,1.78C245.13,130.55,263.7,123.94,280.63,116.59Z" style="fill: rgb(255, 255, 255); opacity: 0.6; transform-origin: 228.231px 176.78px;" class="animable"></path></g><g id="elw039nbf2yho"><path d="M247.55,194.42c-3,26.44,2.4,42.55,2.4,42.55-11.35-14.56-24.49-29.25-42.1-38.38a221.27,221.27,0,0,0-21.16-9.52h0c-4.28-1.11-7.74-5.15-9.55-11.56A40.24,40.24,0,0,1,176,163.66C195.47,167.41,227.54,175.42,247.55,194.42Z" style="opacity: 0.1; transform-origin: 212.891px 200.315px;" class="animable"></path></g><path d="M332.15,136.82c4.17,14.86,4.17,32.41.78,49.58h0c-4.36,22-14.26,43.3-28.08,57.46-24.6,25.21-52.27,18.15-61.8-15.75a93.79,93.79,0,0,1-3.25-25,131.68,131.68,0,0,1,16.87-63.67c1.51-2.62,3.11-5.15,4.79-7.56.7-1,1.43-2,2.16-3h0q1.56-2.07,3.2-4c1.14-1.33,2.31-2.62,3.51-3.85C294.94,95.86,322.61,102.9,332.15,136.82Z" style="fill: rgb(108, 53, 222); transform-origin: 287.591px 182.458px;" id="eli5pq0ftoet" class="animable"></path><g id="elnm51mm4ruca"><path d="M332.93,186.41c-4.36,22-14.26,43.3-28.08,57.46-24.6,25.21-52.27,18.15-61.8-15.75a93.79,93.79,0,0,1-3.25-25h0c3.22,3.83,12.12,8.08,14.09,2.79a84.18,84.18,0,0,0,2.91,22.19c2.74,9.75,7.12,17,12.67,21a18.05,18.05,0,0,0,16.17,2.58c5.82-1.62,12-5.67,17.84-11.65,11.75-12,20.55-30.22,25.07-49.28C328.56,190.71,330.82,191.74,332.93,186.41Z" style="opacity: 0.1; transform-origin: 286.364px 222.696px;" class="animable"></path></g><path d="M329,139.73c4.21,15,3.71,33.36-.48,51C324,209.77,315.24,228,303.49,240c-5.85,6-12,10-17.84,11.65a18.05,18.05,0,0,1-16.17-2.58c-5.55-4-9.93-11.24-12.67-21a84.18,84.18,0,0,1-2.91-22.19c0-3,.08-6,.3-9a124.71,124.71,0,0,1,2.27-16c.23-1.1.47-2.18.72-3.27.42-1.8.87-3.61,1.37-5.39a124.17,124.17,0,0,1,6.34-17.69c0-.06.07-.13.09-.2a107.53,107.53,0,0,1,5.54-10.75q2.18-3.67,4.57-7c.67-.93,1.35-1.85,2-2.74q1.26-1.6,2.58-3.12c.86-1,1.74-1.93,2.62-2.84,5.86-6,12-10,17.85-11.68C313.1,112.54,323.88,121.36,329,139.73Z" style="fill: rgb(108, 53, 222); transform-origin: 292.91px 183.955px;" id="elnrsy9k9dpu" class="animable"></path><g id="el3e3e3457q0r"><path d="M329,139.73c4.21,15,3.71,33.36-.48,51C324,209.77,315.24,228,303.49,240c-5.85,6-12,10-17.84,11.65a18.05,18.05,0,0,1-16.17-2.58c-5.55-4-9.93-11.24-12.67-21a84.18,84.18,0,0,1-2.91-22.19c0-3,.08-6,.3-9a124.71,124.71,0,0,1,2.27-16c.23-1.1.47-2.18.72-3.27.42-1.8.87-3.61,1.37-5.39a124.17,124.17,0,0,1,6.34-17.69c0-.06.07-.13.09-.2a107.53,107.53,0,0,1,5.54-10.75q2.18-3.67,4.57-7c.67-.93,1.35-1.85,2-2.74q1.26-1.6,2.58-3.12c.86-1,1.74-1.93,2.62-2.84,5.86-6,12-10,17.85-11.68C313.1,112.54,323.88,121.36,329,139.73Z" style="opacity: 0.4; transform-origin: 292.91px 183.955px;" class="animable"></path></g><path d="M294.21,163.45l-9.11,37.18c-8.75-1.89-19.43-4.3-31.07-.74,0-1,.1-2,.18-3a121.28,121.28,0,0,1,2.27-16c.23-1.09.47-2.18.72-3.26q.62-2.72,1.36-5.39a123.89,123.89,0,0,1,6.35-17.7c0-.06.06-.13.08-.2.38-.82.75-1.64,1.14-2.45C274.88,160.62,294.21,163.45,294.21,163.45Z" style="fill: rgb(55, 71, 79); transform-origin: 274.12px 176.26px;" id="elbq1lagvsouo" class="animable"></path><path d="M287.75,200.44c-3.95,1.11-7.21-1.42-8.72-6.77l0-.17c-2.37-8.41.68-20.35,6.78-26.6l.12-.12a11.77,11.77,0,0,1,5-3.27c3.95-1.11,7.21,1.42,8.72,6.77l0,.17c2.37,8.41-.67,20.35-6.78,26.6l-.12.12a11.8,11.8,0,0,1-5,3.27Z" style="fill: rgb(108, 53, 222); transform-origin: 289.341px 181.975px;" id="el4b1mp8rn85i" class="animable"></path></g><g id="freepik--arm--inject-26" class="animable" style="transform-origin: 138.298px 185.635px;"><path d="M183.28,209.82c0,.76-.73,1.28-1.44,1.56a10.11,10.11,0,0,1-1.88.54,1.55,1.55,0,0,1-.63,1.69,3.87,3.87,0,0,1-1.82.61,23.78,23.78,0,0,1-6.58.05c.48.34,1,.9.78,1.44a.81.81,0,0,1-.53.42,2.23,2.23,0,0,1-.68.09c-3,0-5.78-1.15-8.51-2.3-3.41-1.43-4.56-2.91-8.14-3.84-2.94-.75-7.36-.86-10.93-1-8.22-.41-11.1-.37-18.6-.84-6.34-.4-7.42-1.91-12.06-7.17-3.09-3.5-8.05-10.69-14.12-19.32s-2.71-20.44,1.61-25.3c8.29.47,14.71,13.51,14.71,13.51l14.83,21.69c1.84.38,23.46,5,24.5,5a30.65,30.65,0,0,0,4,.1c1.93-.18,3.77-1,5.71-1.09.36,0,.72,0,1.09,0l1.21,4.19a1.52,1.52,0,0,0-.79.39.39.39,0,0,0-.15.28.46.46,0,0,0,.25.33,10,10,0,0,0,1.21.78,21,21,0,0,0,9.18,2.22,24.79,24.79,0,0,0,4.13-.18c1.61-.2,3.64.57,2.15,2.48a4.58,4.58,0,0,1-2.8,1.68,9.59,9.59,0,0,1,2.95.62C182.53,208.67,183.24,209.13,183.28,209.82Z" style="fill: rgb(255, 189, 167); transform-origin: 139.059px 186.335px;" id="el1pestfx67s2" class="animable"></path><path d="M166.59,210a20.08,20.08,0,0,0,13.47,2A29.27,29.27,0,0,1,166.59,210Zm12.34-2.16c-3.87.36-7.89.31-11.55-1.12C170.83,208.6,175.16,208.69,178.93,207.8Zm-8.07,6.36c-1.7-.6-3.33-1.12-5-1.77A8.93,8.93,0,0,0,170.86,214.16Z" style="fill: rgb(240, 153, 122); transform-origin: 172.96px 210.46px;" id="elrjo9pzjuoam" class="animable"></path><path d="M100.92,155.05c-8.42,4.32-9.57,15.37-4.82,24.53,4,7.63,13.77,19.5,13.77,19.5A24,24,0,0,0,120.39,194c5.32-4.77,5.53-8.76,5.53-8.76,1.31,1.83-4.79-7.9-12.38-19.12C111.81,163.52,106.28,155.48,100.92,155.05Z" style="fill: rgb(55, 71, 79); transform-origin: 109.707px 177.065px;" id="elaxybjyjk7ys" class="animable"></path></g><g id="freepik--Hand--inject-26" class="animable" style="transform-origin: 204.797px 127.261px;"><path d="M201.64,119.62c-1.58-1.69-1.85-1.62-2.94-1.09a6,6,0,0,0-3.36,4.26c-.28,1.64-.64,3.27-.37,4.19s2.17.57,3.06-1.46c1.42-3.19,2.32-3,2.32-3a42,42,0,0,0-1.61,4.16,31.37,31.37,0,0,0-.24,5c-.06,1.46,1.7,2.09,2.8-.17,0,0-.07,1.83-.1,2.66-.07,1.87.77,2.67,2.17,1.47a2.72,2.72,0,0,0,.94-1.51s-.39,1.92.24,2.09c1.81.48,2.53-.62,4.43-4.28a11,11,0,0,1,2.74-2.6l3,.24-1.2-3.66a3.15,3.15,0,0,0-3.21-2s.46-2.11-.82-2.5a6.83,6.83,0,0,0-2.91,0,2.35,2.35,0,0,0-1.94-1.6,3.79,3.79,0,0,0-2.45.31Z" style="fill: rgb(255, 189, 167); transform-origin: 204.797px 127.261px;" id="el3dvyvua7fk7" class="animable"></path><path d="M201.3,131.56a12.29,12.29,0,0,1,.22-2.39,7.43,7.43,0,0,1,1.17-2.13,28.18,28.18,0,0,1,3-3.65,28.89,28.89,0,0,1-2.42,4,12.73,12.73,0,0,0-1.23,1.9C201.77,130,201.6,130.83,201.3,131.56Z" style="fill: rgb(240, 153, 122); transform-origin: 203.495px 127.475px;" id="ellvnjhwiro6f" class="animable"></path><path d="M204.31,134.18a5.35,5.35,0,0,1,.42-2.55,13,13,0,0,1,1.25-2.26,24.44,24.44,0,0,1,3.23-4,49.54,49.54,0,0,1-2.65,4.33A13.36,13.36,0,0,0,204.31,134.18Z" style="fill: rgb(240, 153, 122); transform-origin: 206.751px 129.775px;" id="el9s83m17zpap" class="animable"></path></g></g></g></g><g id="freepik--speech-bubble--inject-26" class="animable" style="transform-origin: 172.152px 79.3032px;"><g id="freepik--speech-bubble--inject-26" class="animable" style="transform-origin: 172.152px 79.3032px;"><path d="M136.16,65.63c5.1-7.43,18.74-13.59,35.61-13.75,15.34-.15,34,4.36,38.68,19.1,4,12.57-8.28,24.25-21,26.74a87.52,87.52,0,0,1-15.35,1.62c-2.36,4.41-7.89,7.11-12,7.39A12.23,12.23,0,0,0,164.81,99,79.07,79.07,0,0,1,153,97C130.94,91.48,130.45,73.94,136.16,65.63Z" style="fill: rgb(108, 53, 222); transform-origin: 172.152px 79.3032px;" id="eljqdr903c44i" class="animable"></path><g id="eldqyatfvz9tc"><path d="M136.16,65.63c5.1-7.43,18.74-13.59,35.61-13.75,15.34-.15,34,4.36,38.68,19.1,4,12.57-8.28,24.25-21,26.74a87.52,87.52,0,0,1-15.35,1.62c-2.36,4.41-7.89,7.11-12,7.39A12.23,12.23,0,0,0,164.81,99,79.07,79.07,0,0,1,153,97C130.94,91.48,130.45,73.94,136.16,65.63Z" style="fill: rgb(255, 255, 255); opacity: 0.4; transform-origin: 172.152px 79.3032px;" class="animable"></path></g><path d="M189,75.48a4.58,4.58,0,1,0,4.58-4.58A4.58,4.58,0,0,0,189,75.48Zm-21.45,0a4.58,4.58,0,1,0,4.58-4.58A4.58,4.58,0,0,0,167.57,75.48Zm-21.45,0a4.58,4.58,0,1,0,4.58-4.58A4.58,4.58,0,0,0,146.12,75.48Z" style="fill: rgb(255, 255, 255); transform-origin: 172.13px 75.48px;" id="ellx3mjk6mwml" class="animable"></path></g></g><defs>     <filter id="active" height="200%">         <feMorphology in="SourceAlpha" result="DILATED" operator="dilate" radius="2"></feMorphology>                <feFlood flood-color="#32DFEC" flood-opacity="1" result="PINK"></feFlood>        <feComposite in="PINK" in2="DILATED" operator="in" result="OUTLINE"></feComposite>        <feMerge>            <feMergeNode in="OUTLINE"></feMergeNode>            <feMergeNode in="SourceGraphic"></feMergeNode>        </feMerge>    </filter>    <filter id="hover" height="200%">        <feMorphology in="SourceAlpha" result="DILATED" operator="dilate" radius="2"></feMorphology>                <feFlood flood-color="#ff0000" flood-opacity="0.5" result="PINK"></feFlood>        <feComposite in="PINK" in2="DILATED" operator="in" result="OUTLINE"></feComposite>        <feMerge>            <feMergeNode in="OUTLINE"></feMergeNode>            <feMergeNode in="SourceGraphic"></feMergeNode>        </feMerge>            <feColorMatrix type="matrix" values="0   0   0   0   0                0   1   0   0   0                0   0   0   0   0                0   0   0   1   0 "></feColorMatrix>    </filter></defs></svg>