<?xml version="1.0" encoding="UTF-8" standalone="no"?>
<!-- Created with Inkscape (http://www.inkscape.org/) -->

<svg
   width="170.27228"
   height="170.77036"
   viewBox="0 0 45.051208 45.182988"
   version="1.1"
   id="svg5"
   xml:space="preserve"
   xmlns="http://www.w3.org/2000/svg"
   xmlns:svg="http://www.w3.org/2000/svg"><defs
     id="defs2" /><g
     id="layer1"
     transform="translate(-0.91286245,-0.89322617)"><path
       style="fill:none;stroke:#ffffff;stroke-width:0.355868;stroke-linecap:round;stroke-linejoin:bevel;stroke-dasharray:none;paint-order:stroke markers fill"
       d="m 5.723317,24.998536 c 0.5630086,5.71354 -3.0403906,12.702423 8.34562,18.342211 11.367308,5.355614 20.017452,1.161801 24.961827,-2.156101 6.930522,-4.592794 2.425188,-12.104776 4.200623,-16.728546"
       id="path1197" /><path
       style="fill:none;stroke:#ffffff;stroke-width:0.355868;stroke-linecap:round;stroke-linejoin:bevel;stroke-dasharray:none;paint-order:stroke markers fill"
       d="m 1.4459551,28.977514 c -0.308497,-3.480912 2.4729324,-4.390723 4.2059177,-2.281523 m 0.030732,7.549643 C 3.9629875,35.332901 1.5118746,31.880482 1.445961,28.977514"
       id="path1305" /><path
       style="fill:none;stroke:#ffffff;stroke-width:0.355868;stroke-linecap:round;stroke-linejoin:bevel;stroke-dasharray:none;paint-order:stroke markers fill"
       d="m 45.574122,29.401359 c 0.213441,-2.490661 -1.776479,-2.897236 -2.751736,-1.643773 m 0.306467,5.740928 c 0.94113,-0.193906 2.128448,-1.952235 2.445263,-4.097155"
       id="path1305-5" /><path
       style="fill:#ffffff;stroke:none;stroke-width:0.355868;stroke-linecap:round;stroke-linejoin:bevel;stroke-dasharray:none;paint-order:stroke markers fill"
       d="m 25.837708,36.404922 c 0.356923,-0.407746 1.829659,-0.467676 1.993686,0.0079 0.164036,0.475677 -0.500786,0.760106 -0.827033,0.80707 -0.326254,0.04697 -1.523579,-0.407312 -1.166653,-0.815058 z"
       id="path1545" /><path
       style="fill:#ffffff;stroke:none;stroke-width:0.355868;stroke-linecap:round;stroke-linejoin:bevel;stroke-dasharray:none;paint-order:stroke markers fill"
       d="m 35.950013,33.132704 c -2.006348,0.531071 -3.607596,-1.107034 -3.020504,-2.892648 0.0331,-0.100679 0.03224,-0.230679 0.115326,-0.281939 0.800902,-0.494023 3.006662,-0.986031 3.5352,-0.593679 0.09239,0.06859 0.1957,0.112071 0.28092,0.172439 1.022748,0.724547 1.095401,3.064774 -0.910935,3.595841"
       id="path1549" /><path
       style="fill:none;stroke:#ffffff;stroke-width:0.355868;stroke-linecap:round;stroke-linejoin:bevel;stroke-dasharray:none;paint-order:stroke markers fill"
       d="m 30.689962,32.261294 c 2.183057,-4.382221 8.059843,-3.06805 9.786347,-1.491678 0.130056,0.06762 -0.678039,0.768438 -0.678039,0.768438"
       id="path1676" /><path
       style="fill:#ffffff;stroke:none;stroke-width:0.355868;stroke-linecap:round;stroke-linejoin:bevel;stroke-dasharray:none;paint-order:stroke markers fill"
       d="m 17.521988,34.072989 c 2.463913,0.653731 4.430349,-1.362722 3.70936,-3.560744 -0.04064,-0.123936 -0.03953,-0.283959 -0.141619,-0.347066 -0.983565,-0.608125 -3.692374,-1.213756 -4.341452,-0.730789 -0.113476,0.08442 -0.240338,0.137943 -0.344985,0.212264 -1.255998,0.891893 -1.345222,3.772624 1.118699,4.426347"
       id="path1549-4" /><path
       style="fill:none;stroke:#ffffff;stroke-width:0.355868;stroke-linecap:round;stroke-linejoin:bevel;stroke-dasharray:none;paint-order:stroke markers fill"
       d="m 23.792782,32.614806 c -3.218953,-4.620202 -9.280141,-3.496811 -12.201092,-1.480365 -0.162157,0.0671 0.84534,0.762606 0.84534,0.762606"
       id="path1676-5" /><path
       style="fill:none;stroke:#ffffff;stroke-width:0.355868;stroke-linecap:round;stroke-linejoin:bevel;stroke-dasharray:none;paint-order:stroke markers fill"
       d="m 5.7155568,26.091151 4.0230238,3.20938"
       id="path1711" /><path
       style="fill:none;stroke:#ffffff;stroke-width:0.355868;stroke-linecap:round;stroke-linejoin:bevel;stroke-dasharray:none;paint-order:stroke markers fill"
       d="m 9.7385806,29.255329 c 3.9864344,-2.579528 11.5418504,-2.061221 14.9695844,1.229582 0.896401,2.748362 -0.779617,7.370798 -7.149547,7.3815 -3.639333,-0.130821 -8.896807,-3.43877 -7.8200374,-8.611082 z"
       id="path1713" /><path
       style="fill:none;stroke:#ffffff;stroke-width:0.355868;stroke-linecap:round;stroke-linejoin:bevel;stroke-dasharray:none;paint-order:stroke markers fill"
       d="m 42.05435,29.276648 c -3.492933,-2.37469 -9.954835,-1.490719 -12.95824,1.357961 -0.785438,2.530118 1.74536,7.124513 7.665759,6.388534 3.663431,-1.047081 6.235961,-2.984892 5.292481,-7.746495 z"
       id="path1713-1" /><path
       style="fill:none;stroke:#ffffff;stroke-width:0.355868;stroke-linecap:round;stroke-linejoin:bevel;stroke-dasharray:none;paint-order:stroke markers fill"
       d="m 41.911927,28.95332 c 0.885348,-1.397938 0.885348,-1.397938 0.885348,-1.397938"
       id="path1737" /><path
       style="fill:none;stroke:#ffffff;stroke-width:0.355868;stroke-linecap:round;stroke-linejoin:bevel;stroke-dasharray:none;paint-order:stroke markers fill"
       d="m 24.631589,33.788309 c 0,0 1.146364,-0.904241 2.400605,-0.908678 1.254242,-0.0047 2.482498,0.963755 2.482498,0.963755"
       id="path1739" /><path
       style="fill:#ffffff;stroke:none;stroke-width:0.355868;stroke-linecap:round;stroke-linejoin:bevel;stroke-dasharray:none;paint-order:stroke markers fill"
       d="m 5.8644308,24.914809 c 0,0 1.7851523,-0.07086 1.9261589,-0.252298 0.143674,-0.184866 2.3332983,-5.497649 2.6209683,-6.296722 0.287668,-0.799076 6.483826,-3.870757 13.552319,-3.004525 6.520452,0.799084 7.575238,1.885824 7.575238,1.885824 0,0 5.945111,-0.03197 7.735046,0.735149 l 1.789936,0.767116 c 0,0 0.415979,2.213809 0.607289,3.420039 0.287678,1.813904 -0.124339,1.126526 0.990859,1.853851 l 0.183789,0.119888 c 0,0 -0.253549,1.87229 -0.155552,2.575189 l 0.118886,0.852698 1.377544,-0.644943 c 0,0 0.775699,-3.493352 1.431123,-6.001286 0.720839,-2.758336 0.240499,-6.26669 -0.750361,-7.768951 C 43.876826,11.653562 41.032124,7.2426613 37.580115,6.6673283 34.128104,6.0919907 29.972918,3.087468 27.735497,2.3203559 25.498096,1.5532437 22.140375,0.40966648 18.624441,1.1128549 15.108505,1.8160408 10.91065,2.9189846 9.1969508,5.0691771 7.485794,7.2161842 6.968783,9.0435868 4.3243943,11.01685 c -2.9335107,2.188996 -3.82138346,5.495086 -3.246051,8.627464 0.5753383,3.132375 0.8018262,4.462111 1.2785239,5.81727 0.2853941,0.811317 0.6237489,-0.115215 1.5826401,0.07942 1.1653242,0.236566 1.8106225,1.092516 1.8106225,1.092516 z"
       id="path1741" /><path
       style="fill:#ffffff;stroke:none;stroke-width:0.355868;stroke-linecap:round;stroke-linejoin:bevel;stroke-dasharray:none;paint-order:stroke markers fill"
       d="m 30.948145,25.241721 c -0.0022,-0.385304 0.717141,-1.171983 1.00285,-1.34245 0.972906,-0.386211 2.837706,-0.243519 4.407077,-2.35e-4 1.774084,0.275004 3.551194,0.505038 3.632688,0.87633 -0.198587,0.331586 -0.975683,0.114867 -4.974014,0.443233 -0.795264,0.06086 -1.938956,0.167058 -2.915769,0.354329 -0.671153,0.128666 -1.164928,0.06213 -1.152832,-0.331196 z"
       id="path1797" /><path
       style="fill:#ffffff;stroke:none;stroke-width:0.355868;stroke-linecap:round;stroke-linejoin:bevel;stroke-dasharray:none;paint-order:stroke markers fill"
       d="m 23.722509,25.296822 c 0.0036,-0.441494 -0.724066,-1.223053 -1.101671,-1.418388 -1.453653,-0.49848 -3.78242,-0.279029 -6.048362,-0.120152 -2.360006,0.16549 -4.665466,0.4029 -4.773175,0.828339 0.262445,0.379961 1.205603,0.203534 6.482013,0.587793 1.051071,0.06974 2.626551,0.287316 3.917555,0.501896 0.887033,0.147454 1.539629,0.0712 1.52364,-0.3795 z"
       id="path1797-0" /><path
       style="fill:#ffffff;stroke:none;stroke-width:0.118624;stroke-linecap:round;stroke-linejoin:bevel;stroke-dasharray:none;paint-order:stroke markers fill"
       d="m 23.38055,24.17907 c 0.303417,0.145377 0.445475,1.105988 0.371173,1.257408 -0.269803,0.329829 -0.227003,-0.352698 -0.317239,-0.783956 -0.09023,-0.431257 -0.07624,-0.459223 -0.05393,-0.473452 z"
       id="path1825" /><path
       style="fill:#ffffff;stroke:none;stroke-width:0.118624;stroke-linecap:round;stroke-linejoin:bevel;stroke-dasharray:none;paint-order:stroke markers fill"
       d="m 23.832287,25.37029 c 0,0 0.06781,-0.02534 0.08396,-0.575165 0.0031,-0.09603 0.08872,0.166643 0.101959,0.329806 0.01308,0.159447 0.01113,0.321045 -0.09783,0.317923 -0.09471,-0.0033 -0.09421,-0.05208 -0.08808,-0.07258 z"
       id="path1827" /><path
       style="fill:#ffffff;stroke:none;stroke-width:0.118624;stroke-linecap:round;stroke-linejoin:bevel;stroke-dasharray:none;paint-order:stroke markers fill"
       d="m 30.89916,24.351297 c 0.0168,-0.151098 -0.194747,0.116633 -0.253075,0.449117 -0.04366,0.248856 -0.05123,0.58046 0.05755,0.58977 0.09449,0.0079 0.120555,-0.06738 0.118677,-0.100331 0.0017,-0.01794 -0.01492,-0.03374 -0.02383,-0.0455 -0.02187,-0.10787 0.01869,-0.63523 0.100651,-0.893084 z"
       id="path1827-7" /></g></svg>
