<svg width="171" height="171" viewBox="0 0 171 171" fill="none" xmlns="http://www.w3.org/2000/svg">
<path d="M18.1811 91.1067C20.309 112.701 6.68983 139.116 49.7236 160.432C92.6866 180.673 125.38 164.823 144.067 152.283C170.262 134.924 153.234 106.532 159.944 89.0565" stroke="#6C35DE" stroke-width="1.34501" stroke-linecap="round" stroke-linejoin="bevel"/>
<path d="M17.911 97.5223C11.3612 89.5505 0.848678 92.9891 2.01465 106.145C2.26377 117.117 11.5278 130.166 18.0272 126.056" stroke="#6C35DE" stroke-width="1.34501" stroke-linecap="round" stroke-linejoin="bevel"/>
<path d="M158.398 101.535C162.084 96.7971 169.605 98.3338 168.799 107.747C167.601 115.854 163.114 122.5 159.557 123.233" stroke="#6C35DE" stroke-width="1.34501" stroke-linecap="round" stroke-linejoin="bevel"/>
<path d="M94.2041 134.217C95.5531 132.676 101.119 132.45 101.739 134.247C102.359 136.045 99.8465 137.12 98.6135 137.298C97.3804 137.475 92.8551 135.759 94.2041 134.217Z" fill="#6C35DE"/>
<path d="M132.424 121.85C124.841 123.857 118.789 117.666 121.008 110.917C121.133 110.537 121.13 110.045 121.444 109.852C124.471 107.984 132.807 106.125 134.805 107.608C135.154 107.867 135.545 108.031 135.867 108.259C139.732 110.998 140.007 119.843 132.424 121.85Z" fill="#6C35DE"/>
<path d="M112.543 118.556C120.794 101.994 143.006 106.961 149.531 112.919C150.023 113.174 146.969 115.823 146.969 115.823" stroke="#6C35DE" stroke-width="1.34501" stroke-linecap="round" stroke-linejoin="bevel"/>
<path d="M62.7748 125.404C72.0872 127.875 79.5194 120.253 76.7944 111.946C76.6408 111.477 76.645 110.873 76.2592 110.634C72.5418 108.336 62.3037 106.047 59.8505 107.872C59.4216 108.191 58.9422 108.393 58.5466 108.674C53.7996 112.045 53.4623 122.933 62.7748 125.404Z" fill="#6C35DE"/>
<path d="M86.4751 119.893C74.309 102.43 51.4005 106.676 40.3607 114.297C39.7478 114.551 43.5557 117.18 43.5557 117.18" stroke="#6C35DE" stroke-width="1.34501" stroke-linecap="round" stroke-linejoin="bevel"/>
<path d="M18.1519 95.2362L33.357 107.366" stroke="#6C35DE" stroke-width="1.34501" stroke-linecap="round" stroke-linejoin="bevel"/>
<path d="M33.3568 107.195C48.4237 97.4459 76.9796 99.4049 89.9348 111.843C93.3228 122.23 86.9882 139.701 62.9129 139.741C49.1579 139.247 29.2872 126.744 33.3568 107.195Z" stroke="#6C35DE" stroke-width="1.34501" stroke-linecap="round" stroke-linejoin="bevel"/>
<path d="M155.496 107.276C142.294 98.3007 117.871 101.642 106.52 112.408C103.551 121.971 113.116 139.336 135.492 136.554C149.339 132.597 159.061 125.272 155.496 107.276Z" stroke="#6C35DE" stroke-width="1.34501" stroke-linecap="round" stroke-linejoin="bevel"/>
<path d="M154.957 106.054C158.303 100.77 158.303 100.77 158.303 100.77" stroke="#6C35DE" stroke-width="1.34501" stroke-linecap="round" stroke-linejoin="bevel"/>
<path d="M89.6455 124.328C89.6455 124.328 93.9782 120.91 98.7187 120.893C103.459 120.876 108.101 124.536 108.101 124.536" stroke="#6C35DE" stroke-width="1.34501" stroke-linecap="round" stroke-linejoin="bevel"/>
<path d="M18.7146 90.7902C18.7146 90.7902 25.4616 90.5224 25.9946 89.8367C26.5376 89.138 34.8133 69.0581 35.9006 66.038C36.9878 63.0179 60.4064 51.4084 87.1219 54.6823C111.766 57.7025 115.753 61.8099 115.753 61.8099C115.753 61.8099 138.222 61.689 144.988 64.5884L151.753 67.4877C151.753 67.4877 153.325 75.8549 154.048 80.4138C155.135 87.2695 153.578 84.6716 157.793 87.4205L158.488 87.8737C158.488 87.8737 157.529 94.95 157.9 97.6067L158.349 100.829L163.555 98.3919C163.555 98.3919 166.487 85.1886 168.964 75.7098C171.689 65.2846 169.873 52.0247 166.128 46.3469C162.383 40.669 151.632 23.9979 138.585 21.8234C125.538 19.6489 109.833 8.2932 101.377 5.39388C92.9206 2.49455 80.23 -1.82763 66.9414 0.830093C53.6528 3.4878 37.7869 7.65641 31.3099 15.7831C24.8426 23.8978 22.8885 30.8045 12.894 38.2625C1.80669 46.5359 -1.54905 59.0313 0.62544 70.8702C2.79995 82.7091 3.65596 87.7349 5.45766 92.8568C6.53631 95.9232 7.81513 92.4213 11.4393 93.157C15.8437 94.0511 18.2826 97.2861 18.2826 97.2861L18.7146 90.7902Z" fill="#6C35DE"/>
<path d="M113.519 92.0258C113.511 90.5696 116.23 87.5963 117.31 86.952C120.987 85.4923 128.035 86.0316 133.966 86.9511C140.672 87.9905 147.388 88.8599 147.696 90.2632C146.946 91.5165 144.009 90.6974 128.897 91.9384C125.891 92.1685 121.568 92.5698 117.877 93.2776C115.34 93.7639 113.474 93.5124 113.519 92.0258Z" fill="#6C35DE"/>
<path d="M86.2096 92.234C86.2232 90.5654 83.473 87.6115 82.0458 86.8732C76.5517 84.9892 67.75 85.8186 59.1859 86.4191C50.2661 87.0446 41.5526 87.9419 41.1455 89.5498C42.1374 90.9859 45.7021 90.3191 65.6445 91.7714C69.617 92.035 75.5716 92.8573 80.451 93.6683C83.8035 94.2256 86.27 93.9375 86.2096 92.234Z" fill="#6C35DE"/>
<path d="M84.9174 88.0095C86.0642 88.5589 86.6011 92.1896 86.3202 92.7619C85.3005 94.0085 85.4623 91.4288 85.1212 89.7989C84.7802 88.1689 84.8331 88.0632 84.9174 88.0095Z" fill="#6C35DE"/>
<path d="M86.6248 92.5117C86.6248 92.5117 86.8811 92.4159 86.9422 90.3379C86.9539 89.9749 87.2775 90.9677 87.3275 91.5844C87.3769 92.187 87.3696 92.7978 86.9578 92.786C86.5998 92.7735 86.6017 92.5892 86.6248 92.5117Z" fill="#6C35DE"/>
<path d="M113.334 88.6604C113.397 88.0893 112.598 89.1012 112.377 90.3578C112.212 91.2984 112.184 92.5517 112.595 92.5869C112.952 92.6167 113.051 92.3322 113.043 92.2077C113.05 92.1399 112.987 92.0802 112.953 92.0357C112.871 91.628 113.024 89.635 113.334 88.6604Z" fill="#6C35DE"/>
</svg>
