<svg width="100%" height="100%" viewBox="0 0 1440 110" fill="none" xmlns="http://www.w3.org/2000/svg">
<path d="M0 67.6923L40.4859 75.2137C79.9722 79.9145 160.887 88.0206 240.831 85.8435C320.776 83.8192 400.721 73.3333 480.665 69.2465C560.61 65.3125 640.554 69.1319 720.499 79.4444C800.443 89.7569 880.388 105.799 960.333 105.913C1040.28 105.799 1120.22 89.7569 1200.17 87.5799C1280.11 85.5556 1360.06 97.7778 1400.03 103.889L1440 110V0H1400.03C1360.06 0 1280.11 0 1200.17 0C1120.22 0 1040.28 0 960.333 0C880.388 0 800.443 0 720.499 0C640.554 0 560.61 0 480.665 0C400.721 0 320.776 0 240.831 0C160.887 0 80.9423 0 40.97 0H0V67.6923Z" fill="url(#paint0_linear_30_26)"/>
<defs>
<linearGradient id="paint0_linear_30_26" x1="0.997751" y1="55" x2="1440" y2="55" gradientUnits="userSpaceOnUse">
<stop stop-color="#6C35DE"/>
<stop offset="0.781" stop-color="#8E52F2"/>
<stop offset="1" stop-color="#A364FF"/>
</linearGradient>
</defs>
</svg>
