<svg width="1440" height="77" viewBox="0 0 1440 77" fill="none" xmlns="http://www.w3.org/2000/svg">
<path d="M1440 72.0597L1405.7 73.7541C1371.4 75.5763 1303 78.7733 1234 73.7541C1165.7 68.543 1097 55.1157 1029 49.9046C960 44.8853 891 48.0823 823 49.9046C754.3 51.599 686 51.599 617 48.1782C548.6 44.8853 480 37.852 411 44.7894C342.9 51.599 274 72.0597 206 75.4804C137.1 78.7733 69 65.346 34 58.4086L0 51.599V0.447266H34.3C68.6001 0.447266 137 0.447266 206 0.447266C274.3 0.447266 343 0.447266 411 0.447266C480 0.447266 549 0.447266 617 0.447266C685.7 0.447266 754 0.447266 823 0.447266C891.4 0.447266 960 0.447266 1029 0.447266C1097.1 0.447266 1166 0.447266 1234 0.447266C1302.9 0.447266 1371 0.447266 1406 0.447266H1440V72.0597Z" fill="url(#paint0_linear_72_8)"/>
<defs>
<linearGradient id="paint0_linear_72_8" x1="0" y1="38.4473" x2="1440" y2="38.4473" gradientUnits="userSpaceOnUse">
<stop stop-color="#6C35DE"/>
<stop offset="0.5" stop-color="#7D43E8"/>
<stop offset="1" stop-color="#A364FF"/>
</linearGradient>
</defs>
</svg>
