<svg width="1440" height="72" viewBox="0 0 1440 72" fill="none" xmlns="http://www.w3.org/2000/svg">
<path d="M0 4.15668L34.3 2.55145C68.6 0.825089 137 -2.20364 206 2.55145C274.3 7.48827 343 20.2089 411 25.1457C480 29.9008 549 26.8721 617 25.1457C685.7 23.5405 754 23.5405 823 26.7812C891.4 29.9008 960 36.564 1029 29.9917C1097.1 23.5405 1166 4.15668 1234 0.915947C1302.9 -2.20363 1371 10.517 1406 17.0893L1440 23.5405V72H1405.7C1371.4 72 1303 72 1234 72C1165.7 72 1097 72 1029 72C960 72 891 72 823 72C754.3 72 686 72 617 72C548.6 72 480 72 411 72C342.9 72 274 72 206 72C137.1 72 69 72 34 72H0V4.15668Z" fill="url(#paint0_linear_72_6)"/>
<defs>
<linearGradient id="paint0_linear_72_6" x1="1440" y1="36" x2="0" y2="36" gradientUnits="userSpaceOnUse">
<stop stop-color="#A364FF"/>
<stop offset="0.5" stop-color="#7D43E8"/>
<stop offset="1" stop-color="#6C35DE"/>
</linearGradient>
</defs>
</svg>
